<svg xmlns="http://www.w3.org/2000/svg" xmlns:xlink="http://www.w3.org/1999/xlink" x="0px" y="0px" viewBox="0 0 1122 1122" style="enable-background:new 0 0 1122 1122;" xml:space="preserve"><g id="background">	<rect x="0" style="fill:#FFFFFF;" width="1122" height="1122"></rect></g><g id="object">	<path id="XMLID_3138_" style="fill:#E6EAEB;" d="M181.925,149.179c-38.921,39.545-70.292,88.539-90.957,136.697  c-35.505,82.743-41.146,175.238-32.607,263.943c4.371,45.409,12.585,90.415,23.375,134.72  c8.148,33.459,12.148,91.769,47.781,104.568c156.328,56.152,352.242,104.767,519.007,79.341  c83.542-12.737,178.123,1.693,258.634-25.826c54.198-18.526,95.657-64.745,119.541-116.807  c44.955-97.996,52.057-211.273,41.766-317.296c-4.301-44.308-6.663-106.19-30.746-143.985  c-25.49-40.003-76.879-66.376-116.123-90.423C794.779,96.404,638.063,74.527,491.864,70.702  c-76.711-2.007-174.069-14.577-242.838,25.485C224.882,110.253,202.363,128.413,181.925,149.179z"></path>	<path id="XMLID_3135_" style="fill:#E0C349;" d="M618.841,264.791c-2.399-2.595-5.692-2.902-7.45-3.07  c-7.935-0.746-16.013-1.196-24.047-1.339l-2.399-14.428c-0.062-0.351-0.174-1.268-0.317-1.137c0.199-0.242,0.995-0.749,1.485-1.05  l11.545-7.286c1.361-0.857,3.902-2.464,4.89-5.49c0.951-2.902-0.012-5.561-0.522-6.993c-4.505-12.561-9.805-25.004-15.752-36.94  c-0.553-1.11-2.007-4.027-5.344-4.816c-0.354-0.081-1.181-0.167-1.541-0.167c-1.858,0-3.355,0.745-4.163,1.155l-23.637,11.962  l-7.842-7.606c-0.317-0.311-1.012-0.923-1.019-0.883c0.012-0.373,0.478-1.417,0.658-1.815l8.109-18.215  c0.721-1.596,1.92-4.294,1.28-7.391c-0.783-3.731-3.797-5.881-5.419-7.037l-25.805-18.359c-1.212-0.858-3.859-2.572-6.78-2.309  c-3.305,0.295-5.374,2.576-6.493,3.8l-17.896,19.738c-1.764-0.559-3.455-1.18-5.207-1.83c-2.001-0.733-4.058-1.507-6.295-2.181  l-9.762-31.013c-0.677-2.147-2.796-3.526-4.996-3.309c-14.509,1.352-28.938,4.183-42.893,8.389  c-1.597,0.482-2.821,1.761-3.244,3.368c-2.156,8.317-3.517,16.845-4.046,25.408l-14.72,4.294  c-3.996-7.025-8.575-13.742-13.652-20.015c-1.51-1.855-4.176-2.311-6.22-1.047c-12.782,7.913-26.017,15.416-39.333,22.307  c-2.026,1.047-3.026,3.386-2.386,5.58c2.634,9.026,6.008,17.892,10.041,26.396c-6.487,5.863-9.234,7.687-10.346,8.233  c-3.647-0.786-19.225-4.111-25.65-5.344c-1.815-0.345-3.635,0.373-4.729,1.84l-26.042,35.092c-0.808,1.087-1.112,2.48-0.839,3.803  c0.274,1.339,1.1,2.479,2.274,3.169l28.533,16.582c0.149,0.084,0.447,0.255,0.703,0.426c-0.05,0.236-0.112,0.478-0.15,0.624  l-3.293,12.726l-19.703,2.215c-1.386,0.158-3.952,0.454-5.94,2.507c-1.784,1.858-2.119,4.132-2.3,5.351  c-2.019,13.738-3.374,27.759-4.02,41.653c-0.118,2.504,1.721,4.673,4.206,4.962l23.184,2.753c5.412,0.634,8.482,1.886,9.122,3.732  c0.261,0.767,0.286,2.041,0.304,3.277c0.031,1.706,0.069,3.803,0.752,5.844c-6.848,8.193-14.341,15.919-22.308,23.015  c-1.839,1.647-2.131,4.421-0.658,6.407c6.648,8.972,12.707,18.516,18.008,28.334c0.957,1.774,2.927,2.762,4.927,2.452l30.534-4.714  c0.559-0.086,1.119-0.186,1.97-0.164c0.386,0.124,1.336,1.187,1.746,1.646c0.975,1.091,2.461,2.52,4.157,4.145  c2.653,2.538,9.544,9.115,10.209,11.813c-0.845,1.507-3.274,5.014-5.101,7.667c-7.91,11.433-10.569,15.277-6.183,18.657  c8.656,6.66,18.2,12.092,28.347,16.143c2.05,0.832,4.728,1.451,7.102,0.705c2.081-0.643,3.418-1.997,4.306-2.898L413.39,431.3  c4.468,0.997,8.818,2.656,12.813,4.878c0.099,8.447,0.77,16.92,1.982,25.262c0.342,2.33,2.33,4.07,4.686,4.089  c15.317,0.106,30.82,1.128,46.068,3.008c0.193,0.031,0.391,0.034,0.584,0.034c2.212,0,4.17-1.519,4.66-3.731  c2.206-9.945,3.554-20.108,4.014-30.286c2.578-0.584,5.207-0.951,7.841-1.106l0.913-0.115c0.262,0.199,0.79,1.031,0.963,1.299  c3.343,5.245,6.295,10.784,8.762,16.463c0.559,1.302,1.671,2.28,3.026,2.676c1.354,0.4,2.821,0.174,3.995-0.606  c16.802-11.2,32.671-19.153,47.169-23.655c1.342-0.41,2.429-1.395,2.976-2.691c0.547-1.286,0.503-2.759-0.13-4.011l-12.409-24.634  c-0.062-0.112-0.162-0.311-0.248-0.498c0.13-0.152,0.267-0.317,0.354-0.403l9.595-10.672c7.73,5.272,16.155,9.333,25.103,12.107  c2.324,0.718,4.772-0.407,5.766-2.597c6.729-14.9,12.881-30.273,18.287-45.702c0.634-1.802,0.125-3.815-1.292-5.107  c-5.996-5.447-12.639-10.094-19.797-13.866c1.777-5.391,3.256-10.899,4.436-16.457c5.829-0.482,11.664-0.634,17.448-0.463  c2.343,0.071,4.362-1.547,4.822-3.828c2.467-12.247,5.014-24.907,5.443-37.773C621.283,271.185,621.401,267.562,618.841,264.791z   M396.434,276.199c1.883-4.076,4.039-7.773,6.033-10.516c9.544-13.083,22.643-21.108,37.879-23.184  c16.323-2.246,33.778,2.865,47.883,14.006c14.08,11.129,21.381,25.523,20.561,40.554c-0.87,15.938-10.905,31.05-27.533,41.455  c-19.013,11.909-40.401,12.406-60.223,1.392c-23.873-13.257-31.236-31.665-23.861-59.708  C397.552,278.768,397.235,277.318,396.434,276.199z"></path>	<path id="XMLID_3132_" style="fill:#527595;" d="M839.748,424.796c-1.655-1.79-3.926-2.002-5.139-2.118  c-5.474-0.514-11.046-0.825-16.588-0.923l-1.655-9.953c-0.043-0.242-0.12-0.874-0.219-0.784c0.138-0.167,0.686-0.517,1.025-0.724  l7.964-5.026c0.939-0.591,2.692-1.699,3.373-3.787c0.656-2.001-0.008-3.836-0.36-4.824c-3.108-8.665-6.764-17.249-10.866-25.482  c-0.381-0.766-1.384-2.778-3.686-3.322c-0.245-0.056-0.815-0.115-1.063-0.115c-1.282,0-2.314,0.514-2.872,0.797l-16.305,8.251  l-5.41-5.247c-0.219-0.215-0.698-0.637-0.703-0.609c0.008-0.257,0.33-0.978,0.454-1.252l5.594-12.565  c0.497-1.101,1.325-2.962,0.883-5.099c-0.54-2.574-2.619-4.057-3.738-4.854l-17.801-12.664c-0.836-0.592-2.662-1.775-4.677-1.592  c-2.28,0.204-3.708,1.777-4.479,2.621l-12.345,13.616c-1.217-0.386-2.383-0.814-3.592-1.262c-1.38-0.506-2.799-1.039-4.342-1.504  l-6.734-21.394c-0.467-1.481-1.929-2.432-3.446-2.282c-10.009,0.932-19.962,2.885-29.589,5.787  c-1.102,0.332-1.946,1.215-2.238,2.323c-1.488,5.737-2.426,11.62-2.791,17.527l-10.154,2.962  c-2.757-4.846-5.916-9.479-9.417-13.807c-1.042-1.28-2.881-1.594-4.291-0.722c-8.817,5.458-17.947,10.634-27.133,15.388  c-1.398,0.722-2.088,2.336-1.646,3.849c1.817,6.226,4.145,12.343,6.927,18.208c-4.475,4.044-6.37,5.303-7.137,5.68  c-2.516-0.542-13.262-2.836-17.694-3.687c-1.252-0.238-2.508,0.257-3.262,1.269l-17.964,24.207  c-0.557,0.75-0.767,1.711-0.578,2.624c0.189,0.923,0.759,1.71,1.569,2.186l19.683,11.438c0.103,0.058,0.309,0.176,0.485,0.294  c-0.035,0.163-0.077,0.33-0.103,0.431l-2.272,8.779l-13.592,1.528c-0.956,0.109-2.726,0.313-4.098,1.729  c-1.23,1.282-1.462,2.85-1.586,3.691c-1.393,9.477-2.327,19.149-2.773,28.733c-0.082,1.728,1.187,3.223,2.902,3.423l15.993,1.899  c3.734,0.437,5.851,1.301,6.292,2.574c0.18,0.529,0.197,1.408,0.21,2.261c0.021,1.177,0.047,2.623,0.519,4.031  c-4.724,5.652-9.893,10.982-15.388,15.876c-1.268,1.136-1.47,3.05-0.454,4.419c4.586,6.189,8.766,12.773,12.422,19.546  c0.66,1.224,2.019,1.905,3.399,1.691l21.063-3.252c0.386-0.06,0.772-0.129,1.359-0.113c0.266,0.086,0.922,0.818,1.204,1.135  c0.673,0.752,1.697,1.738,2.867,2.859c1.83,1.751,6.584,6.288,7.043,8.149c-0.583,1.039-2.259,3.459-3.519,5.289  c-5.457,7.887-7.291,10.538-4.265,12.87c5.971,4.595,12.555,8.341,19.555,11.136c1.414,0.574,3.262,1.001,4.899,0.486  c1.436-0.444,2.357-1.378,2.971-1.999l15.585-15.738c3.082,0.688,6.083,1.832,8.839,3.365c0.068,5.827,0.532,11.672,1.367,17.426  c0.236,1.607,1.607,2.808,3.232,2.82c10.566,0.073,21.26,0.778,31.779,2.075c0.133,0.021,0.27,0.023,0.403,0.023  c1.526,0,2.876-1.048,3.215-2.574c1.522-6.86,2.452-13.871,2.769-20.892c1.779-0.403,3.592-0.656,5.409-0.763l0.63-0.08  c0.18,0.137,0.545,0.711,0.664,0.896c2.306,3.618,4.342,7.439,6.044,11.357c0.386,0.898,1.153,1.573,2.088,1.846  c0.934,0.276,1.946,0.12,2.756-0.418c11.59-7.726,22.538-13.212,32.538-16.318c0.926-0.283,1.676-0.963,2.053-1.856  c0.377-0.887,0.347-1.903-0.09-2.767l-8.56-16.993c-0.042-0.077-0.112-0.215-0.171-0.343c0.09-0.105,0.184-0.219,0.244-0.278  l6.619-7.362c5.332,3.637,11.144,6.438,17.317,8.352c1.603,0.495,3.292-0.281,3.977-1.792c4.642-10.279,8.886-20.883,12.615-31.526  c0.437-1.243,0.086-2.632-0.891-3.523c-4.136-3.757-8.718-6.963-13.656-9.565c1.226-3.719,2.246-7.518,3.06-11.352  c4.021-0.332,8.046-0.437,12.036-0.32c1.616,0.049,3.009-1.067,3.326-2.641c1.702-8.448,3.459-17.182,3.755-26.057  C841.433,429.207,841.514,426.708,839.748,424.796z M686.326,432.666c1.299-2.812,2.786-5.362,4.162-7.254  c6.584-9.025,15.62-14.561,26.13-15.993c11.26-1.549,23.301,1.976,33.031,9.662c9.713,7.677,14.749,17.606,14.183,27.975  c-0.6,10.995-7.523,21.419-18.993,28.597c-13.116,8.215-27.87,8.558-41.543,0.96c-16.468-9.145-21.548-21.843-16.46-41.188  C687.097,434.438,686.879,433.438,686.326,432.666z"></path>	<path id="XMLID_3096_" style="fill:#A64749;" d="M789.862,207.199c-1.065-1.152-2.528-1.289-3.309-1.364  c-3.524-0.331-7.112-0.531-10.681-0.595l-1.065-6.408c-0.028-0.156-0.077-0.563-0.141-0.505c0.089-0.108,0.442-0.333,0.66-0.466  l5.128-3.236c0.604-0.381,1.733-1.094,2.172-2.438c0.423-1.289-0.005-2.47-0.232-3.106c-2.001-5.579-4.355-11.106-6.996-16.407  c-0.246-0.493-0.891-1.789-2.373-2.139c-0.157-0.036-0.524-0.074-0.684-0.074c-0.825,0-1.49,0.331-1.849,0.513l-10.498,5.313  l-3.483-3.378c-0.141-0.138-0.45-0.41-0.452-0.392c0.005-0.166,0.213-0.629,0.292-0.806l3.602-8.09  c0.32-0.709,0.853-1.907,0.569-3.283c-0.348-1.657-1.686-2.612-2.407-3.125l-11.462-8.154c-0.538-0.381-1.714-1.143-3.011-1.025  c-1.468,0.131-2.387,1.144-2.884,1.688l-7.948,8.767c-0.784-0.248-1.535-0.524-2.313-0.813c-0.889-0.326-1.802-0.669-2.796-0.969  l-4.336-13.775c-0.301-0.954-1.242-1.566-2.219-1.47c-6.444,0.6-12.853,1.858-19.051,3.726c-0.709,0.214-1.253,0.782-1.441,1.496  c-0.958,3.694-1.562,7.482-1.797,11.285l-6.538,1.907c-1.775-3.12-3.809-6.104-6.063-8.89c-0.671-0.824-1.855-1.026-2.763-0.465  c-5.677,3.514-11.556,6.847-17.47,9.908c-0.9,0.465-1.344,1.504-1.06,2.478c1.17,4.009,2.669,7.947,4.46,11.724  c-2.881,2.604-4.101,3.414-4.595,3.657c-1.62-0.349-8.539-1.826-11.393-2.374c-0.806-0.153-1.615,0.166-2.1,0.817l-11.567,15.586  c-0.359,0.483-0.494,1.101-0.373,1.689c0.122,0.595,0.489,1.101,1.01,1.407l12.673,7.365c0.066,0.037,0.199,0.113,0.312,0.189  c-0.022,0.105-0.05,0.213-0.066,0.277l-1.463,5.652l-8.751,0.984c-0.615,0.07-1.755,0.202-2.638,1.114  c-0.792,0.825-0.941,1.835-1.021,2.376c-0.897,6.102-1.498,12.329-1.785,18.501c-0.053,1.112,0.764,2.076,1.868,2.204l10.297,1.223  c2.404,0.282,3.767,0.838,4.052,1.658c0.116,0.341,0.127,0.907,0.135,1.456c0.014,0.758,0.031,1.689,0.334,2.596  c-3.041,3.639-6.37,7.071-9.908,10.222c-0.817,0.731-0.947,1.964-0.293,2.846c2.953,3.985,5.644,8.224,7.998,12.585  c0.425,0.788,1.3,1.227,2.189,1.089l13.562-2.094c0.248-0.038,0.497-0.083,0.875-0.073c0.171,0.055,0.594,0.527,0.775,0.731  c0.433,0.484,1.093,1.119,1.846,1.841c1.179,1.127,4.239,4.049,4.535,5.247c-0.375,0.669-1.454,2.227-2.266,3.406  c-3.513,5.078-4.694,6.785-2.746,8.287c3.845,2.958,8.084,5.371,12.591,7.17c0.911,0.37,2.1,0.644,3.154,0.313  c0.924-0.286,1.518-0.887,1.913-1.287l10.035-10.133c1.984,0.443,3.916,1.18,5.691,2.166c0.044,3.752,0.342,7.515,0.88,11.22  c0.152,1.035,1.035,1.808,2.081,1.816c6.803,0.047,13.689,0.501,20.462,1.336c0.086,0.014,0.174,0.015,0.26,0.015  c0.982,0,1.852-0.675,2.07-1.657c0.98-4.417,1.579-8.931,1.783-13.452c1.145-0.259,2.313-0.422,3.483-0.491l0.406-0.051  c0.116,0.089,0.351,0.458,0.428,0.577c1.485,2.33,2.796,4.79,3.891,7.312c0.249,0.578,0.742,1.013,1.344,1.188  c0.602,0.178,1.253,0.077,1.775-0.269c7.463-4.975,14.511-8.507,20.95-10.507c0.596-0.182,1.079-0.62,1.322-1.195  c0.243-0.571,0.224-1.225-0.058-1.782l-5.511-10.941c-0.028-0.05-0.072-0.138-0.11-0.221c0.058-0.068,0.119-0.141,0.157-0.179  l4.262-4.74c3.433,2.342,7.175,4.145,11.15,5.378c1.032,0.319,2.12-0.181,2.561-1.154c2.989-6.618,5.721-13.446,8.122-20.299  c0.282-0.8,0.055-1.695-0.574-2.269c-2.663-2.419-5.614-4.483-8.793-6.159c0.789-2.394,1.446-4.841,1.97-7.309  c2.589-0.214,5.181-0.282,7.75-0.206c1.041,0.032,1.938-0.687,2.142-1.7c1.096-5.44,2.227-11.063,2.418-16.777  C790.946,210.039,790.999,208.43,789.862,207.199z M691.078,212.266c0.836-1.81,1.794-3.453,2.68-4.671  c4.239-5.811,10.057-9.375,16.824-10.297c7.25-0.998,15.003,1.272,21.268,6.221c6.254,4.943,9.497,11.336,9.132,18.012  c-0.386,7.079-4.844,13.791-12.229,18.413c-8.445,5.289-17.945,5.51-26.749,0.618c-10.603-5.888-13.874-14.064-10.598-26.52  C691.574,213.408,691.434,212.763,691.078,212.266z"></path>	<g id="XMLID_2060_">		<path id="XMLID_2644_" style="fill:#C8AE9A;" d="M516.088,459.96c0.88-2.119,1.417-4.38,1.582-6.673   c0.161-2.227-0.396-4.989-2.557-5.718c-2.133-0.72-4.203,1.072-5.552,2.814c-6.234,8.054-8.982,18.161-11.596,27.991   c-1.966-0.945-1.132,0.607,8.078,1.832c0.581-4.188,4.551-6.935,7.052-10.344c2.665-3.633,6.452-6.937,6.79-11.434   c-0.588-0.134-1.176-0.268-1.764-0.402C517.444,458.67,516.766,459.315,516.088,459.96z"></path>		<path id="XMLID_2639_" style="fill:#1F375A;" d="M602.446,903.51c-2.128-38.88,2.341-78.533,1.951-117.654   c1.399-13.561-0.87-27.373-6.635-40.121c-0.358-0.791-0.746-1.601-1.458-2.207c-2.211-1.881-5.993-0.881-8.927,0.118   c-28.136,9.585-61.367,7.328-87.02-6.204c-5.067,6.379-6.521,14.204-7.772,21.765c-2.021,12.223-4.235,24.421-4.778,36.697   c-0.001,0.023-0.005,0.047-0.006,0.07l0.003,0c-0.115,2.636-0.18,5.275-0.119,7.919c0.353,15.302,3.927,30.38,6.72,45.462   c1.822,9.839,3.424,19.746,3.577,29.714c0.125,8.158-1.26,15.615,0.949,23.603c5.439,19.67,5.453,41.1,7.753,61.197   c2.463,21.521,4.895,43.046,6.908,64.6c0.08,0.858,0.16,1.717,0.239,2.575c1.313,0.29,21.373,4.106,21.373-0.187   c1.608-41.836,3.217-83.671,4.825-125.507c0.677-17.604-0.863-77.08,4.537-93.853c2.226,0.184,4.451,0.368,6.677,0.552   c12.231,55.361,26.723,152.336,38.954,207.698c1.077,4.875,2.383,10.134,6.271,13.275c3.888,3.141,11.148,2.261,12.297-2.597   C605.174,988.122,604.762,945.834,602.446,903.51z"></path>		<path id="XMLID_2631_" style="fill:#C8AE9A;" d="M566.681,525.016c0-14.386-12.541-26.048-28.012-26.048   c-15.47,0-28.012,11.662-28.012,26.048c0,2.402,0.378,4.718,1.033,6.926c0.024,0.565,0.036,1.144,0.027,1.749   c-0.081,5.189,0.154,10.414,1.17,15.534c1.976,9.961,7.13,19.226,16.886,24.893c3.249,1.887,6.98,3.325,10.863,3.297   c5.223-0.038,10.014-2.723,13.643-6.055c11.986-11.009,13.02-27.555,12.174-43.17   C566.589,527.147,566.681,526.093,566.681,525.016z"></path>		<path id="XMLID_2630_" style="fill:#3D322B;" d="M536.671,1031.105c-5.809-0.415-11.675-0.196-17.424,0.652   c-4.432,2.928-9.287,5.349-14.41,7.187c-1.487,0.534-3.053,1.051-4.151,2.089c-1.098,1.038-1.542,2.784-0.516,3.878   c0.897,0.957,2.483,1.06,3.885,1.073c10.736,0.1,21.483-0.71,32.046-2.418c0.633-0.102,1.306-0.226,1.764-0.628   c0.366-0.322,0.537-0.775,0.671-1.216C539.613,1038.162,538.919,1034.207,536.671,1031.105z"></path>		<path id="XMLID_2065_" style="fill:#3D322B;" d="M605.735,1033.943c-5.208,0.533-10.341,1.636-15.247,3.274   c-3.335,3.27-7.143,6.159-11.302,8.575c-1.208,0.701-2.488,1.4-3.253,2.487c-0.765,1.086-0.813,2.695,0.307,3.503   c0.979,0.705,2.399,0.551,3.639,0.345c9.494-1.574,18.818-3.955,27.804-7.098c0.539-0.188,1.108-0.402,1.433-0.828   c0.259-0.34,0.322-0.767,0.353-1.177C609.719,1039.714,608.329,1036.332,605.735,1033.943z"></path>		<path id="XMLID_2598_" style="fill:#1F375A;" d="M506.039,480.897c1.424-3.705,2.583-8.679-0.164-10.416   c-2.835-1.793-6.672,1.81-9.184,5.014c-5.52,7.039-11.04,14.078-16.561,21.117c-10.761,13.722-21.722,27.783-28.418,44.026   c-2.73,6.622-4.638,14.513-1.548,19.842c1.92,3.31,5.405,4.927,8.821,6.193c17.007,6.301,19.443-13.941,25.221-28.975   C491.485,518.765,498.762,499.831,506.039,480.897z"></path>		<path id="XMLID_2596_" style="fill:#1F375A;" d="M605.541,769.048c-0.095-26.775-0.19-53.549-0.285-80.324   c-0.08-22.56-5.22-46.497-8.566-68.779c-1.842-12.261-4.013-16.524-9.575-27.458c-0.792-1.558-0.926-2.608-8.293-4.979   c-1.601-0.515-5.402-2.676-7.363-2.344c-9.619,1.625-19.411-2.019-29.03-0.394c-10.18,1.719-27.251-3.431-35.184,3.528   c-10.721,9.406-11.466,31.75-13.171,46.367c-2.3,19.718-7.757,39.72-8.721,59.558c-0.846,17.411-1.305,34.84-1.626,52.269   c-0.167,9.087-3.483,40.68,4.679,46.758c4.773,3.555,17.551,5.005,30.699,5.442c0.473,0.016,0.946,0.032,1.419,0.045   c0.126,0.003,0.252,0.006,0.378,0.009c5.355,0.141,10.705,0.124,15.555,0.018c7.158-0.156,13.215-0.5,16.499-0.8   c15.337-1.399,30.485-4.524,45.51-7.978c2.669-0.614,5.616-1.435,7.076-3.876C606.591,784.356,605.549,771.123,605.541,769.048z"></path>		<path id="XMLID_2565_" style="fill:#1F375A;" d="M481.706,638.061c3.026,3.996,6.557,7.902,11.209,9.793   c4.653,1.89,10.659,1.158,13.432-2.84c2.532-3.65,1.714-8.641,0.562-13.019c-2.945-11.19,12.48-8.37,8.02-19.102   c-4.704-11.316-29.308-36.225-34.012-47.541c-1.425-3.428-2.986-7.035-5.991-9.279c-5.257-3.924-19.456-2.209-21.802,4.195   c-2.104,5.745,4.561,21.759,6.161,27.801C463.959,605.707,470.471,623.225,481.706,638.061z"></path>		<path id="XMLID_2063_" style="fill:#E8E8E8;" d="M553.872,609.029c0.585-4.184,3.336-7.478,6.906-9.635   c0.784-4.062,1.568-8.125,2.352-12.188c0.094-0.136,0.194-0.27,0.271-0.416c0.248-0.472,0.363-1.015,0.319-1.532   c-0.95-0.189-1.904-0.361-2.855-0.548c-12.061,2.406-24.427,2.476-36.666-0.693c0.14,0.979,0.19,1.981,0.095,3.002   c-6.526,70.309-9.196,140.887-6.568,211.423c1.745-0.572,3.696-0.883,5.87-0.849c6.719,0.106,13.679,0.989,20.635,1.575   C527.741,737.068,545.07,671.958,553.872,609.029z M559.3,591.181c0.297-0.025,0.594-0.047,0.892-0.073   c-0.469,1.238-0.937,2.476-1.406,3.713C558.958,593.608,559.129,592.394,559.3,591.181z"></path>		<path id="XMLID_2062_" style="fill:#8A6239;" d="M575.236,512.87c-2.306-9.7-9.245-17.231-18.086-21.628   c-13.828-6.878-37.172-7.363-44.214,9.068c-13.815,4.824-6.712,26.629,7.068,21.639c0.157-0.058,0.327-0.121,0.488-0.179   c7.101,3.49,17.089,4.638,25.876,4.785c3.278,8.01,9.946,14.891,19.648,10.958C575.334,533.735,577.326,521.661,575.236,512.87z"></path>		<defs>			<filter id="Adobe_OpacityMaskFilter" filterUnits="userSpaceOnUse" x="494.856" y="1036.78" width="222.307" height="14.891">											</filter>		</defs>					<mask maskUnits="userSpaceOnUse" x="494.856" y="1036.78" width="222.307" height="14.891" id="XMLID_00000182500624993472432370000011637915444486229691_">			<g style="filter:url(#Adobe_OpacityMaskFilter);">				<defs>											<filter id="Adobe_OpacityMaskFilter_00000143591834445685580990000003795125745456243852_" filterUnits="userSpaceOnUse" x="494.856" y="1036.78" width="222.307" height="14.891">																	</filter>				</defs>									<mask maskUnits="userSpaceOnUse" x="494.856" y="1036.78" width="222.307" height="14.891" id="XMLID_00000182500624993472432370000011637915444486229691_">					<g style="filter:url(#Adobe_OpacityMaskFilter_00000143591834445685580990000003795125745456243852_);">					</g>				</mask>									<linearGradient id="XMLID_00000023280726780702901890000010769070799054033283_" gradientUnits="userSpaceOnUse" x1="1910.9287" y1="1095.6909" x2="2026.7906" y2="1095.6909" gradientTransform="matrix(1.919 -0.0546 0.0284 0.9996 -3203.3555 56.6459)">					<stop offset="0" style="stop-color:#FFFFFF"></stop>					<stop offset="1" style="stop-color:#000000"></stop>				</linearGradient>									<path id="XMLID_3032_" style="mask:url(#XMLID_00000182500624993472432370000011637915444486229691_);fill:url(#XMLID_00000023280726780702901890000010769070799054033283_);" d="     M713.125,1043.923c4.299-1.491,5.544-3.306,1.873-5.514c-2.952-1.775-11.508-0.831-15.414-0.922     c-18.285-0.428-36.585-0.76-54.93-0.701c-36.897,0.119-73.877,1.534-110.607,4.238c-5.452,0.401-44.939,1.96-38.479,8.711     c3.284,3.432,18.98,1.255,24.775,1.232c12.667-0.05,25.335-0.1,38.002-0.15c25.336-0.1,50.673-0.2,76.013-0.3     C639.992,1050.497,697.286,1049.415,713.125,1043.923z"></path>			</g>		</mask>					<linearGradient id="XMLID_00000076577507059388239740000001298657727859552161_" gradientUnits="userSpaceOnUse" x1="1910.9287" y1="1095.6909" x2="2026.7906" y2="1095.6909" gradientTransform="matrix(1.919 -0.0546 0.0284 0.9996 -3203.3555 56.6459)">			<stop offset="0" style="stop-color:#000000"></stop>			<stop offset="1" style="stop-color:#000000"></stop>		</linearGradient>		<path id="XMLID_2061_" style="opacity:0.22;fill:url(#XMLID_00000076577507059388239740000001298657727859552161_);" d="   M713.125,1043.923c4.299-1.491,5.544-3.306,1.873-5.514c-2.952-1.775-11.508-0.831-15.414-0.922   c-18.285-0.428-36.585-0.76-54.93-0.701c-36.897,0.119-73.877,1.534-110.607,4.238c-5.452,0.401-44.939,1.96-38.479,8.711   c3.284,3.432,18.98,1.255,24.775,1.232c12.667-0.05,25.335-0.1,38.002-0.15c25.336-0.1,50.673-0.2,76.013-0.3   C639.992,1050.497,697.286,1049.415,713.125,1043.923z"></path>	</g>	<g id="XMLID_2037_">		<defs>							<filter id="Adobe_OpacityMaskFilter_00000127039071710489181410000012141226144740756120_" filterUnits="userSpaceOnUse" x="329.973" y="1030.74" width="222.307" height="14.891">											</filter>		</defs>					<mask maskUnits="userSpaceOnUse" x="329.973" y="1030.74" width="222.307" height="14.891" id="XMLID_00000060724112441619218560000000353686094012874630_">			<g style="filter:url(#Adobe_OpacityMaskFilter_00000127039071710489181410000012141226144740756120_);">				<defs>											<filter id="Adobe_OpacityMaskFilter_00000006690561848428667910000000604667385425676207_" filterUnits="userSpaceOnUse" x="329.973" y="1030.74" width="222.307" height="14.891">																	</filter>				</defs>									<mask maskUnits="userSpaceOnUse" x="329.973" y="1030.74" width="222.307" height="14.891" id="XMLID_00000060724112441619218560000000353686094012874630_">					<g style="filter:url(#Adobe_OpacityMaskFilter_00000006690561848428667910000000604667385425676207_);">					</g>				</mask>									<linearGradient id="XMLID_00000026869874635543040510000018149369594784251020_" gradientUnits="userSpaceOnUse" x1="1825.166" y1="1084.9645" x2="1941.0278" y2="1084.9645" gradientTransform="matrix(1.919 -0.0546 0.0284 0.9996 -3203.3555 56.6459)">					<stop offset="0" style="stop-color:#FFFFFF"></stop>					<stop offset="1" style="stop-color:#000000"></stop>				</linearGradient>									<path id="XMLID_2898_" style="mask:url(#XMLID_00000060724112441619218560000000353686094012874630_);fill:url(#XMLID_00000026869874635543040510000018149369594784251020_);" d="     M548.242,1037.884c4.299-1.491,5.544-3.306,1.873-5.514c-2.952-1.775-11.508-0.831-15.414-0.922     c-18.285-0.428-36.585-0.76-54.931-0.701c-36.897,0.119-73.877,1.535-110.607,4.238c-5.452,0.401-44.939,1.96-38.479,8.711     c3.284,3.433,18.98,1.255,24.775,1.233c12.667-0.05,25.335-0.1,38.002-0.15c25.336-0.1,50.673-0.2,76.013-0.3     C475.109,1044.457,532.403,1043.376,548.242,1037.884z"></path>			</g>		</mask>					<linearGradient id="XMLID_00000140732923861778506390000013534788485855917971_" gradientUnits="userSpaceOnUse" x1="1825.166" y1="1084.9645" x2="1941.0278" y2="1084.9645" gradientTransform="matrix(1.919 -0.0546 0.0284 0.9996 -3203.3555 56.6459)">			<stop offset="0" style="stop-color:#000000"></stop>			<stop offset="1" style="stop-color:#000000"></stop>		</linearGradient>		<path id="XMLID_2059_" style="opacity:0.22;fill:url(#XMLID_00000140732923861778506390000013534788485855917971_);" d="   M548.242,1037.884c4.299-1.491,5.544-3.306,1.873-5.514c-2.952-1.775-11.508-0.831-15.414-0.922   c-18.285-0.428-36.585-0.76-54.931-0.701c-36.897,0.119-73.877,1.535-110.607,4.238c-5.452,0.401-44.939,1.96-38.479,8.711   c3.284,3.433,18.98,1.255,24.775,1.233c12.667-0.05,25.335-0.1,38.002-0.15c25.336-0.1,50.673-0.2,76.013-0.3   C475.109,1044.457,532.403,1043.376,548.242,1037.884z"></path>		<path id="XMLID_2058_" style="fill:#333333;" d="M365.523,893.142c1.803-39.869-1.984-80.53-1.654-120.645   c-1.186-13.905,0.737-28.068,5.623-41.141c0.303-0.811,0.632-1.642,1.236-2.263c1.874-1.929,5.079-0.903,7.566,0.122   c23.845,9.829,52.009,7.514,73.749-6.362c4.294,6.541,5.527,14.565,6.586,22.318c1.713,12.533,3.589,25.042,4.049,37.63   c0.001,0.024,0.004,0.048,0.005,0.072l-0.002,0c0.098,2.703,0.152,5.409,0.101,8.121c-0.299,15.691-3.328,31.152-5.695,46.618   c-1.544,10.089-2.902,20.248-3.031,30.469c-0.106,8.366,1.068,16.012-0.804,24.203c-4.609,20.17-4.621,42.144-6.57,62.752   c-2.087,22.068-4.148,44.141-5.854,66.242c-0.068,0.88-0.135,1.76-0.202,2.64c-1.113,0.297-18.114,4.21-18.114-0.191   c-1.363-42.899-2.726-85.798-4.089-128.698c-0.574-18.052-1.184-36.368-5.761-53.567c-1.886,0.189-3.772,0.378-5.658,0.566   c-10.366,56.769-20.732,113.537-31.098,170.306c-0.913,4.999-2.02,10.392-5.315,13.612c-3.295,3.221-9.448,2.319-10.421-2.663   C363.211,979.904,363.56,936.542,365.523,893.142z"></path>		<path id="XMLID_2057_" style="fill:#736357;" d="M422.887,1026.543c5.19-0.418,10.431-0.197,15.566,0.656   c3.96,2.948,8.298,5.386,12.874,7.236c1.329,0.537,2.728,1.058,3.709,2.103c0.981,1.045,1.378,2.803,0.461,3.905   c-0.801,0.963-2.218,1.067-3.471,1.08c-9.592,0.101-19.193-0.715-28.63-2.434c-0.566-0.103-1.167-0.228-1.576-0.632   c-0.327-0.324-0.48-0.78-0.599-1.224C420.259,1033.648,420.879,1029.666,422.887,1026.543z"></path>		<path id="XMLID_2056_" style="fill:#736357;" d="M370.258,1026.381c-5.239-0.106-10.491,0.432-15.599,1.6   c-3.8,3.201-8.01,5.913-12.496,8.048c-1.303,0.62-2.677,1.228-3.599,2.337c-0.922,1.109-1.215,2.899-0.227,3.951   c0.863,0.919,2.293,0.938,3.552,0.875c9.643-0.478,19.239-1.879,28.616-4.176c0.562-0.138,1.159-0.299,1.545-0.731   c0.309-0.345,0.435-0.813,0.528-1.266C373.328,1033.359,372.465,1029.397,370.258,1026.381z"></path>		<g id="XMLID_2054_">			<path id="XMLID_2055_" style="fill:#F0E5D4;" d="M408.552,559.809c5.148-0.042,9.871-3.024,13.448-6.727    c13.321-13.788,12.923-35.397,11.613-54.524c-0.139-2.029-0.315-4.166-1.465-5.843c-1.771-2.583-5.233-3.266-8.344-3.622    c-13.295,0-26.414,0.603-39.811,1.25c-1.125,0.054-2.331,0.137-3.217,0.833c-0.946,0.742-1.297,2.003-1.5,3.188    c-0.941,5.498,0.849,11.252,0.771,16.876c-0.08,5.764,0.152,11.569,1.153,17.255c1.948,11.065,7.029,21.357,16.644,27.652    C401.047,558.244,404.724,559.84,408.552,559.809z"></path>		</g>		<path id="XMLID_2053_" style="fill:#333333;" d="M432.791,480.089c8.527,6.559,8.871,19.106,8.022,29.83   c-0.37,4.679-1.328,10.138-5.52,12.25c0.197-4.785-2.931-8.992-5.904-12.747c-2.037-2.573-4.166-5.223-7.087-6.719   c-8.818-4.515-18.417,2.676-27.291,3.276c-5.906,0.399-7.993-2.282-10.096,4.382c-1.704,5.399-2.274,11.404-2.311,17.039   c-0.005,0.716-0.01,1.476-0.388,2.084c-0.378,0.608-1.282,0.947-1.83,0.486c-0.231-0.194-0.353-0.485-0.467-0.764   c-3.076-7.524-8.874-15.626-10.001-23.596c-1.391-9.833-0.046-20.247,3.395-29.53c0.673-1.815,1.884-3.91,3.818-3.839   c1.382,0.051,2.411,1.22,3.499,2.074c2.524,1.981,5.943,2.456,9.141,2.196c3.198-0.26,6.305-1.174,9.474-1.677   c6.124-0.972,11.786,0.45,17.823,0.735C422.59,475.829,428.276,476.615,432.791,480.089z"></path>		<g id="XMLID_2051_">			<path id="XMLID_2052_" style="fill:#333333;" d="M423.99,564.368c8.454-8.977,16.428,1.053,19.561,9.786    c12.647,35.25,16.87,73.002,20.998,110.332c0.661,5.98,1.323,11.961,1.984,17.941c2.382,21.536,4.763,43.073,7.145,64.609    c0.14,1.268-24.498,6.518-26.592,7.041c-12.868,3.217-26.28,3.329-39.428,2.458c-16.461-1.09-32.845-3.7-49.339-3.642    c-7.036,0.025-14.188,0.523-21.007-1.26c2.7-12.511,2.902-25.425,3.426-38.229c1.264-30.883,4.465-61.644,7.665-92.38    c1.795-17.243,2.807-34.877,5.132-51.972c1.271-9.343,5.509-25.691,14.876-29.775c9.941-4.333,14.81,7.189,22.878,10.208    c9.232,3.452,20.541,4.048,28.964-1.764C421.816,566.645,422.96,565.463,423.99,564.368z"></path>		</g>		<path id="XMLID_2050_" style="fill:#F0F0F0;" d="M467.545,757.4c0.365-0.07,0.493-0.263,0.284-0.628   c-1.368-2.392-3.484-6.792-5.661-11.944c-1.64-25.595-4.22-51.249-8.691-76.446c-5.514-31.078-17.402-59.915-24.495-90.478   c-2.086-8.991-12.823-8.186-16.821-1.902c-0.308,0.07-0.619,0.131-0.929,0.193c-3.417-3.004-7.575-5.508-12.681-7.346   c-5.694-2.049-11.618,3.26-11.616,8.849c0.002,5.958-0.091,11.932-0.234,17.913c-9.933,48.661-15.896,98.077-17.766,147.719   c-0.002,0.056,0.005,0.112,0.005,0.168c-0.553,2.551-1.113,5.099-1.691,7.64c-1.247,3.845-2.58,8.225-2.735,11.62   c-0.081,0.333-0.156,0.668-0.237,1.001c-1.065,4.349,1.389,8.116,5.451,9.6c31.085,11.362,64.315,9.527,94.107-4.68   c0.413-0.197,0.779-0.417,1.121-0.649c0.26-0.11,0.521-0.22,0.781-0.33c0.462-0.357,0.924-0.714,1.386-1.071   c1.071-1.071,1.684-2.448,1.883-3.931C469.248,760.896,468.719,758.875,467.545,757.4z"></path>		<g id="XMLID_2047_">			<path id="XMLID_2049_" style="fill:#E8DBCE;" d="M505.813,477.205c0.691-2.188,1.737-4.263,3.087-6.124    c1.311-1.808,3.515-3.562,5.638-2.729c2.096,0.823,2.526,3.527,2.435,5.728c-0.416,10.176-4.822,19.678-9.152,28.882    c-3.525-0.906-6.907-2.373-9.972-4.326c2.253-3.578,3.596-7.71,3.877-11.929c0.3-4.496-0.47-9.462,2.168-13.12    c0.536,0.276,1.072,0.552,1.608,0.828C505.606,475.346,505.71,476.276,505.813,477.205z"></path>			<path id="XMLID_2048_" style="fill:#333333;" d="M498.109,496.472c-1.343-0.37-20.46,59.464-27.151,64.71    c-2.471,1.937-5.49,3.025-8.492,3.943c-13.425,4.109-27.695,5.436-41.647,3.871c-12.874-1.444-42.327-13.009-53.133-3.308    c-6.114,5.489-5.015,17.567-4.272,24.752c0.641,6.211-3.801,56.709,9.159,47.979c10.592-7.137,25.16-12.28,40.223-16.364    c-0.022,0.069-0.053,0.128-0.071,0.202c-3.642,15.066-8.654,30.441-9.956,45.941c-0.062,0.733-0.105,1.465-0.146,2.198    c-0.149,0.368-0.296,0.739-0.447,1.104c-1.201,2.902-2.322,5.625-2.37,8.843c-0.149,10.052,6.331,20.529,9.571,29.822    c0.281,0.807,0.784,1.296,1.359,1.53c1.132,1.57,3.688,0.667,4.285-0.989c0.731-2.026,1.446-4.049,2.133-6.074    c0.645-0.425,1.104-1.139,1.105-2.163c0-0.398,0.001-0.796,0.002-1.194c2.53-7.923,4.426-15.914,4.595-24.212    c0.506-0.463,0.851-1.116,0.863-1.945c0.244-15.806-0.267-31.567-1.446-47.32c0.251-2.4,0.518-4.799,0.791-7.197    c0.048-0.424-0.019-0.798-0.158-1.13c13.324-3.225,26.433-5.788,36.942-8.323c9.439-2.277,18.897-6.122,25.398-13.333    c10.254-11.372,10.852-27.963,14.093-42.191c4.203-18.451,8.13-36.969,12.194-55.451    C507.059,498.939,502.584,497.706,498.109,496.472z"></path>		</g>	</g>	<g id="XMLID_1986_">		<path id="XMLID_2028_" style="fill:#1A1A1A;" d="M644.562,1045.886c-1.796,1.507,0.646,2.703,1.818,2.815   c2.133,0.204,4.349,0.084,6.436-0.418c0.553-0.133,1.116-0.301,1.561-0.656c0.35-0.279,0.604-0.657,0.853-1.029   c0.688-1.027,2.318-2.652,2.576-3.843c0.213-0.983-0.378-1.938-0.839-2.835c-0.979-1.904-2.655-3.861-2.571-6.125   c-4.626,0.509-9.064-1.087-12.898,0.161c-0.322,1.612-1.529,2.93-0.967,4.192c-0.371-0.833-11.544,1.979-12.869,2.239   c-2.131,0.417-4.274,0.771-6.438,0.963c-1.685,0.149-4.914-0.628-5.862,1.053c-0.337,0.597-0.447,1.294-0.497,1.978   c-0.038,0.52-0.043,1.056,0.126,1.549c0.292,0.851,1.072,1.462,1.916,1.773C626.088,1051.08,635.239,1045.752,644.562,1045.886z"></path>		<path id="XMLID_2027_" style="fill:#444748;" d="M648.85,833.223c-10.528-0.278-21.056-0.557-31.584-0.835   c-0.657-1.361,2.07-0.188,2.048,1.324c-0.682,47.664,3.577,95.397,12.688,142.187c3.926,20.164,8.771,40.341,8.851,60.884   c4.32-0.007,8.64-0.015,12.96-0.022c1.467-64.26,2.935-128.52,4.402-192.78c0.074-3.25-0.058-6.978-2.567-9.046   C653.81,833.418,651.232,833.286,648.85,833.223z"></path>		<path id="XMLID_2026_" style="fill:#444748;" d="M737.909,1027.399c5.846-0.066,11.65-2.156,16.195-5.833   c-10.273-18.118-20.546-36.236-30.819-54.354c-3.249-5.73-6.514-11.495-8.733-17.696c-2.728-7.624-4.471-15.661-4.876-23.748   c-4.436-88.772-4.436-88.772,2.202-107.887c0.864-2.487,17.002-11.625,0,0c-6.243,4.269-29.902,0.76-37.385,1.864   c-1.64,0.242-3.424,0.559-4.52,1.803c-1.252,1.422,0.615,6.389-1.018,5.429c-13.346-7.848-4.435,2.827-2.438,27.51   c0.702,8.679,9.848,63.982,12.458,72.289c4.613,14.683,10.844,29.862,20.216,42.07   C713.62,987.644,723.267,1004.96,737.909,1027.399z"></path>		<g id="XMLID_2022_">			<path id="XMLID_2025_" style="fill:#E8DBCE;" d="M516.329,469.387c-0.469-2.246-1.303-4.415-2.461-6.401    c-1.125-1.929-3.143-3.895-5.339-3.277c-2.167,0.61-2.864,3.258-2.994,5.457c-0.599,10.167,2.839,20.061,6.231,29.65    c3.598-0.55,7.109-1.673,10.354-3.312c-1.885-3.785-2.81-8.03-2.671-12.255c0.149-4.504,1.409-9.368-0.851-13.271    c-0.561,0.221-1.122,0.443-1.683,0.664C516.72,467.558,516.524,468.472,516.329,469.387z"></path>			<g id="XMLID_2023_">				<path id="XMLID_2024_" style="fill:#444748;" d="M620.83,633.088c17.496,4.337,28.946-45.173,6.973-50.056     c-19.9-4.423-50.451,1.153-69.457-8.198c-9.122-4.488-15.821-12.297-18.972-22.739c-6.277-20.802-12.046-41.736-17.296-62.769     c-4.576,0.782-9.151,1.563-13.727,2.345c3.146,26.821,6.291,53.642,9.437,80.463c0.606,5.167,1.271,10.526,3.748,15.176     c2.402,4.509,6.261,7.869,10.133,10.84C557.376,617.874,593.073,626.207,620.83,633.088z"></path>			</g>		</g>		<path id="XMLID_2021_" style="fill:#E8DBCE;" d="M652.731,566.062c2.317-4.03,3.64-9.206,3.565-15.258   c-0.138-11.17-1.525-22.613-6.602-32.354c-5.847-11.218-19.402-21.641-32.385-17.399c-15.208,4.968-12.678,25.805-10.61,39.616   c1.644,10.975,6.234,21.838,14.567,28.587C633.711,579.334,646.646,576.648,652.731,566.062z"></path>		<path id="XMLID_2020_" style="fill:#1A1A1A;" d="M748.18,1035.968c-1.115,2.272,1.817,2.386,3.024,1.985   c2.195-0.73,4.33-1.815,6.17-3.222c0.488-0.373,0.971-0.784,1.254-1.329c0.223-0.428,0.31-0.912,0.393-1.388   c0.231-1.314,1.131-3.63,0.865-4.919c-0.219-1.063-1.219-1.748-2.066-2.432c-1.798-1.453-4.951-4.104-5.857-6.375   c-4.345,2.522-10.948,5.478-14.187,8.383c1.773,1.29,1.941,2.417,3.046,3.417c-0.729-0.66-10.532,6.993-11.726,7.828   c-1.922,1.342-3.882,2.627-5.935,3.761c-1.599,0.883-5.125,1.525-5.327,3.599c-0.072,0.736,0.124,1.473,0.372,2.17   c0.189,0.53,0.418,1.061,0.8,1.475c0.659,0.713,1.696,0.976,2.666,0.914C732.21,1049.159,738.917,1039.906,748.18,1035.968z"></path>		<path id="XMLID_2019_" style="fill:#F0F0F0;" d="M715.172,705.246c-1.905-33.712-6.61-68.545-21.508-97.277   c-10.7-20.637-25.42-44.627-46.07-23.047c-1.869,1.953-14.686-5.391-15.947-2.924c-3.14-1.079-6.658,0.04-8.749,4.712   c-6.999,15.635-9.513,32.893-10.634,50.637c-1.286,20.351-1.674,40.847-2.157,61.25c-0.224,9.459-0.395,18.919-0.528,28.38   c-2.873,25.297-4.298,50.734-1.036,76.17c0.164,1.28,0.5,2.38,0.957,3.321c0.076,6.385,0.164,12.769,0.278,19.153   c0.073,4.084,2.475,9.457,6.033,10.076c31.455,5.469,62.892,4.017,93.897-4.824c3.637-1.037,5.86-5.625,6.033-10.076   C717.238,782.348,717.342,743.66,715.172,705.246z"></path>		<path id="XMLID_2018_" style="fill:#D7C68E;" d="M671.567,491.514c-0.526-4.048-4.857-5.937-9.313-6.245   c-1.132-2.685-3.06-4.275-5.35-4.828c-1.22-2.508-3.553-4.829-6.695-6.132c-7.827-3.245-17.309-2.35-22.374,3.075   c-1.382-0.133-2.69,0.073-3.927,0.536c-2.153-0.252-4.396-0.158-6.33,0.483c-3.667-2.165-7.936-2.962-11.833-0.581   c-3.807,2.326-5.137,7.62-5.649,13.13c-0.101,0.023-0.194,0.021-0.296,0.047c-2.306,0.583-4.697,2.401-6.762,4.827   c-13.457,3.311-20.055,19.912-7.418,29.732c6.224,4.837,14.536,4.713,20.925,0.298c3.267-2.258,4.852-4.982,6.668-8.398   c1.379-2.593,1.991-6.489,5.077-8.057c2.088-1.061,6.65-0.531,10.337-0.078c0.152,0.656,0.351,1.365,0.595,2.229   c0.926,3.283,1.597,6.512,2.323,9.892c1.186,5.53,4.128,10.245,10.637,10.23c1.732-0.004,4.417-1.989,5.698-1.763   c4.046,0.712,1.351,7.468,1.553,10.76c0.457,7.428,4.788,12.953,10.902,16.687c2.081,1.271,4.943,0.452,6.161-1.615   c4.303-7.302,14.84-27.02,13.471-39.761c0.123-0.164,0.241-0.333,0.333-0.52C685.529,504.9,681.35,495.057,671.567,491.514z"></path>		<path id="XMLID_2017_" style="fill:#444748;" d="M710.141,647.544c-7.958-26.45-19.958-51.466-31.884-76.301   c-1.764-3.674-7.863-2.731-8.721,1.14c-0.253,1.14-0.492,2.283-0.738,3.424c-1.441-0.254-2.984,0.236-3.943,1.887   c-20.884,35.932-18.561,81.313-20.829,121.445c-1.877,33.194-3.753,66.389-5.629,99.584c-1.452,8.367-2.828,16.748-4.093,25.149   c-0.176,1.173-0.013,2.228,0.373,3.14c-2.305,6.475-2.775,13.167-1.642,20.365c0.364,2.313,3.178,4.248,5.435,4.138   c3.784-0.185,7.453-0.798,10.961-1.792c15.002,1.848,30.781,2.193,44.377-4.736c17.794-9.069,24.92-14.407,26.06-32.872   c1.583-25.639-0.07-65.438-0.001-91.123C719.933,696.02,717.354,671.517,710.141,647.544z"></path>		<path id="XMLID_2016_" style="fill:#444748;" d="M628.236,578.622c-0.32-0.615-1.085-0.847-1.723-0.701   c-3.794,0.867-4.124,2.231-5.587,5.719c-2.22,5.292-4.379,10.584-6.198,16.03c-3.475,10.401-6.063,21.086-8.007,31.874   c-3.919,21.743-5.354,43.879-5.736,65.944c-0.401,23.179-0.829,46.496-0.007,69.667c0.444,12.503,0.948,25.003,1.72,37.478   c0.386,6.232,1.028,12.435,1.427,18.668c0.341,5.326,0.476,9.681,2.769,14.589c1.515,3.243,7.292,2.555,7.899-1.032   c0.89-5.252-0.115-9.668-0.933-14.874c-0.986-6.276-1.301-12.603-1.939-18.909c-1.154-11.4-1.529-22.892-1.643-34.356   c-0.227-22.775-0.958-45.543-0.694-68.323c0.253-21.801,1.139-43.743,4.698-65.285c1.71-10.352,3.997-20.617,7.076-30.651   c1.858-6.053,3.926-12.107,6.433-17.925C629.256,583.128,629.986,581.981,628.236,578.622z"></path>		<path id="XMLID_2015_" style="fill:#1F375A;" d="M633.096,591.322c-1.451,2.818-3.275,5.273-4.323,8.314   c-1,2.901-1.426,6.295-1.152,9.342c0.094,1.039,0.554,1.958,1.217,2.649c-0.551,0.618-0.94,1.469-1.053,2.571   c-0.112,1.092-0.236,2.182-0.353,3.274c-0.229,0.532-0.351,1.153-0.322,1.871c0.012,0.284,0.017,0.569,0.028,0.853   c-2.374,21.652-5.523,43.244-7.732,64.928c-2.389,23.45-4.778,46.9-7.167,70.349c-0.39,3.824,4.779,5.324,7.21,2.987   c6.71-6.452,7.471-16.067,8.957-24.798c2.094-12.299,3.767-24.677,5.044-37.087c2.639-25.658,3.346-51.464,2.304-77.233   c-0.029-0.709-0.198-1.325-0.466-1.853c0.148-0.738,0.269-1.484,0.424-2.219c0.361-1.707-0.166-3.008-1.083-3.847   c3.275-3.485,4.671-7.84,3.514-12.526c-0.082-0.333-0.211-0.616-0.359-0.878c0.468-0.668,0.992-1.293,1.65-1.807   C643.934,592.702,635.931,585.814,633.096,591.322z"></path>		<g id="XMLID_2011_">			<g id="XMLID_2013_">				<path id="XMLID_2014_" style="fill:#444748;" d="M686.612,660.493c-3.451-15.393-23.257-18.645-27.126,0.753     c-3.504,17.568-4.672,35.503-12.604,52.445c-3.807,8.131-10.64,14.247-19.907,17.338c-18.462,6.159-37.054,11.876-55.746,17.143     c0.803,3.982,1.606,7.964,2.409,11.947c23.916-3.608,47.833-7.215,71.749-10.823c4.608-0.695,9.385-1.447,13.488-3.765     c3.978-2.247,6.896-5.733,9.465-9.219C685.398,713.172,692.145,685.175,686.612,660.493z"></path>			</g>			<path id="XMLID_2012_" style="fill:#E8DBCE;" d="M552.925,758.268c-1.684,0.599-3.401,1.216-4.8,2.328    c-1.399,1.112-2.447,2.828-2.286,4.608c0.16,1.78,1.845,3.425,3.606,3.126c-0.131,0.497-0.024,1.051,0.283,1.463    c3.641,1.026,7.282-1.253,10.614-3.045c2.574-1.385,5.278-2.53,8.064-3.414c2.354-0.747,5.011-1.489,6.252-3.625    c0.905-1.556,0.805-3.524,0.243-5.234c-0.561-1.711-1.536-3.249-2.35-4.854c-4.379,0.812-8.757,1.624-13.135,2.437    c-0.713,0.132-1.457,0.278-2.026,0.727c-0.569,0.449-0.891,1.302-0.513,1.921c0.95,0.099,1.858,0.561,2.498,1.27    C557.224,756.739,555.074,757.504,552.925,758.268z"></path>		</g>		<defs>							<filter id="Adobe_OpacityMaskFilter_00000063592659460572910710000008835671535024794042_" filterUnits="userSpaceOnUse" x="609.402" y="1036.78" width="222.307" height="14.891">											</filter>		</defs>					<mask maskUnits="userSpaceOnUse" x="609.402" y="1036.78" width="222.307" height="14.891" id="XMLID_00000070810585183743717020000005935101950616435588_">			<g style="filter:url(#Adobe_OpacityMaskFilter_00000063592659460572910710000008835671535024794042_);">				<defs>											<filter id="Adobe_OpacityMaskFilter_00000155864388357385892440000016778495534752656042_" filterUnits="userSpaceOnUse" x="609.402" y="1036.78" width="222.307" height="14.891">																	</filter>				</defs>									<mask maskUnits="userSpaceOnUse" x="609.402" y="1036.78" width="222.307" height="14.891" id="XMLID_00000070810585183743717020000005935101950616435588_">					<g style="filter:url(#Adobe_OpacityMaskFilter_00000155864388357385892440000016778495534752656042_);">					</g>				</mask>									<linearGradient id="XMLID_00000049183751344457979200000009267775048829754034_" gradientUnits="userSpaceOnUse" x1="1970.5712" y1="1098.9486" x2="2086.4331" y2="1098.9486" gradientTransform="matrix(1.919 -0.0546 0.0284 0.9996 -3203.3555 56.6459)">					<stop offset="0" style="stop-color:#FFFFFF"></stop>					<stop offset="1" style="stop-color:#000000"></stop>				</linearGradient>									<path id="XMLID_2897_" style="mask:url(#XMLID_00000070810585183743717020000005935101950616435588_);fill:url(#XMLID_00000049183751344457979200000009267775048829754034_);" d="     M827.672,1043.923c4.299-1.491,5.544-3.306,1.873-5.514c-2.952-1.775-11.508-0.831-15.414-0.922     c-18.285-0.428-36.585-0.76-54.93-0.701c-36.897,0.119-73.877,1.534-110.607,4.238c-5.452,0.401-44.939,1.96-38.479,8.711     c3.284,3.432,18.98,1.255,24.775,1.232c12.667-0.05,25.335-0.1,38.002-0.15c25.336-0.1,50.673-0.2,76.013-0.3     C754.538,1050.497,811.832,1049.415,827.672,1043.923z"></path>			</g>		</mask>					<linearGradient id="XMLID_00000021105569439695697220000007001231380455718839_" gradientUnits="userSpaceOnUse" x1="1970.5712" y1="1098.9486" x2="2086.4331" y2="1098.9486" gradientTransform="matrix(1.919 -0.0546 0.0284 0.9996 -3203.3555 56.6459)">			<stop offset="0" style="stop-color:#000000"></stop>			<stop offset="1" style="stop-color:#000000"></stop>		</linearGradient>		<path id="XMLID_2010_" style="opacity:0.22;fill:url(#XMLID_00000021105569439695697220000007001231380455718839_);" d="   M827.672,1043.923c4.299-1.491,5.544-3.306,1.873-5.514c-2.952-1.775-11.508-0.831-15.414-0.922   c-18.285-0.428-36.585-0.76-54.93-0.701c-36.897,0.119-73.877,1.534-110.607,4.238c-5.452,0.401-44.939,1.96-38.479,8.711   c3.284,3.432,18.98,1.255,24.775,1.232c12.667-0.05,25.335-0.1,38.002-0.15c25.336-0.1,50.673-0.2,76.013-0.3   C754.538,1050.497,811.832,1049.415,827.672,1043.923z"></path>	</g></g></svg>