<svg xmlns="http://www.w3.org/2000/svg" width="65" height="64" viewBox="0 0 65 64" fill="none"><path d="M16.2457 30.1028C15.4456 30.1028 14.6777 29.7849 14.1121 29.2192C13.5465 28.6535 13.2285 27.8857 13.2285 27.0857C13.2285 26.2857 13.5464 25.5178 14.1121 24.9522C14.6779 24.3866 15.4457 24.0686 16.2457 24.0686C17.0456 24.0686 17.8136 24.3865 18.3792 24.9522C18.9448 25.5179 19.2628 26.2857 19.2628 27.0857C19.2619 27.8858 18.9436 28.6527 18.3783 29.2184C17.8126 29.7837 17.0457 30.102 16.2456 30.1029L16.2457 30.1028ZM16.2457 26.0799C15.8389 26.0799 15.472 26.3251 15.3167 26.7009C15.1609 27.0767 15.2467 27.509 15.5345 27.7968C15.8223 28.0846 16.2546 28.1704 16.6304 28.0146C17.0062 27.8592 17.2514 27.4924 17.2514 27.0856C17.2505 26.5307 16.8006 26.0808 16.2457 26.0799Z" fill="#1673FF"></path><path d="M24.2685 30.1028C23.4684 30.1028 22.7006 29.7849 22.1349 29.2192C21.5693 28.6535 21.2513 27.8857 21.2513 27.0857C21.2513 26.2857 21.5692 25.5178 22.1349 24.9522C22.7007 24.3866 23.4685 24.0686 24.2685 24.0686C25.0685 24.0686 25.8364 24.3865 26.402 24.9522C26.9676 25.5179 27.2856 26.2857 27.2856 27.0857C27.2847 27.8858 26.9664 28.6527 26.4011 29.2184C25.8354 29.7837 25.0685 30.102 24.2684 30.1029L24.2685 30.1028ZM24.2685 26.0799C23.8617 26.0799 23.4949 26.3251 23.3395 26.7009C23.1837 27.0767 23.2695 27.509 23.5573 27.7968C23.8451 28.0846 24.2775 28.1704 24.6533 28.0146C25.0291 27.8592 25.2742 27.4924 25.2742 27.0856C25.2733 26.5307 24.8234 26.0808 24.2685 26.0799Z" fill="#1673FF"></path><path d="M32.2571 30.1028C31.4661 30.1028 30.7071 29.7849 30.1479 29.2192C29.5887 28.6535 29.2743 27.8857 29.2743 27.0857C29.2743 26.2857 29.5886 25.5178 30.1479 24.9522C30.7072 24.3866 31.4663 24.0686 32.2571 24.0686C33.048 24.0686 33.8072 24.3865 34.3664 24.9522C34.9256 25.5179 35.24 26.2857 35.24 27.0857C35.2391 27.8858 34.9244 28.6527 34.3656 29.2184C33.8063 29.7837 33.0481 30.102 32.2571 30.1029L32.2571 30.1028ZM32.2571 26.0799C31.855 26.0799 31.4923 26.3251 31.3388 26.7009C31.1847 27.0767 31.2695 27.509 31.554 27.7968C31.8386 28.0846 32.266 28.1704 32.6376 28.0146C33.0091 27.8592 33.2515 27.4924 33.2515 27.0856C33.2506 26.5307 32.8058 26.0808 32.2571 26.0799Z" fill="#1673FF"></path><path d="M16.2457 38.1255C15.4456 38.1255 14.6777 37.8076 14.1121 37.2419C13.5465 36.6762 13.2285 35.9084 13.2285 35.1084C13.2285 34.3084 13.5464 33.5405 14.1121 32.9749C14.6779 32.4093 15.4457 32.0913 16.2457 32.0913C17.0456 32.0913 17.8136 32.4092 18.3792 32.9749C18.9448 33.5406 19.2628 34.3084 19.2628 35.1084C19.2619 35.9085 18.9436 36.6754 18.3783 37.2411C17.8126 37.8064 17.0457 38.1247 16.2456 38.1256L16.2457 38.1255ZM16.2457 34.1026C15.8389 34.1026 15.472 34.3478 15.3167 34.7236C15.1609 35.0994 15.2467 35.5317 15.5345 35.8195C15.8223 36.1073 16.2546 36.1931 16.6304 36.0373C17.0062 35.8819 17.2514 35.5151 17.2514 35.1083C17.2505 34.5534 16.8006 34.1035 16.2457 34.1026Z" fill="#1673FF"></path><path d="M24.2685 38.1255C23.4684 38.1255 22.7006 37.8076 22.1349 37.2419C21.5693 36.6762 21.2513 35.9084 21.2513 35.1084C21.2513 34.3084 21.5692 33.5405 22.1349 32.9749C22.7007 32.4093 23.4685 32.0913 24.2685 32.0913C25.0685 32.0913 25.8364 32.4092 26.402 32.9749C26.9676 33.5406 27.2856 34.3084 27.2856 35.1084C27.2847 35.9085 26.9664 36.6754 26.4011 37.2411C25.8354 37.8064 25.0685 38.1247 24.2684 38.1256L24.2685 38.1255ZM24.2685 34.1026C23.8617 34.1026 23.4949 34.3478 23.3395 34.7236C23.1837 35.0994 23.2695 35.5317 23.5573 35.8195C23.8451 36.1073 24.2775 36.1931 24.6533 36.0373C25.0291 35.8819 25.2742 35.5151 25.2742 35.1083C25.2733 34.5534 24.8234 34.1035 24.2685 34.1026Z" fill="#1673FF"></path><path d="M32.2571 38.1255C31.4661 38.1255 30.7071 37.8076 30.1479 37.2419C29.5887 36.6762 29.2743 35.9084 29.2743 35.1084C29.2743 34.3084 29.5886 33.5405 30.1479 32.9749C30.7072 32.4093 31.4663 32.0913 32.2571 32.0913C33.048 32.0913 33.8072 32.4092 34.3664 32.9749C34.9256 33.5406 35.24 34.3084 35.24 35.1084C35.2391 35.9085 34.9244 36.6754 34.3656 37.2411C33.8063 37.8064 33.0481 38.1247 32.2571 38.1256L32.2571 38.1255ZM32.2571 34.1026C31.855 34.1026 31.4923 34.3478 31.3388 34.7236C31.1847 35.0994 31.2695 35.5317 31.554 35.8195C31.8386 36.1073 32.266 36.1931 32.6376 36.0373C33.0091 35.8819 33.2515 35.5151 33.2515 35.1083C33.2506 34.5534 32.8058 34.1035 32.2571 34.1026Z" fill="#1673FF"></path><path d="M24.2685 22.0799C22.1406 22.0799 20.0999 21.2346 18.5956 19.7299C17.0909 18.2256 16.2456 16.1849 16.2456 14.057C16.2456 11.9291 17.0909 9.88847 18.5956 8.38419C20.0999 6.87944 22.1406 6.03418 24.2685 6.03418C26.3964 6.03418 28.437 6.87944 29.9413 8.38419C31.4461 9.88847 32.2913 11.9291 32.2913 14.057C32.2891 16.1841 31.4429 18.2234 29.9387 19.7273C28.4348 21.2315 26.3956 22.0777 24.2685 22.0799ZM24.2685 8.03989C22.6724 8.03989 21.1422 8.67384 20.0135 9.80206C18.8853 10.9307 18.2513 12.4609 18.2513 14.057C18.2513 15.6531 18.8853 17.1833 20.0135 18.312C21.1422 19.4402 22.6724 20.0742 24.2685 20.0742C25.8646 20.0742 27.3947 19.4402 28.5234 18.312C29.6517 17.1833 30.2856 15.6531 30.2856 14.057C30.2838 12.4619 29.6494 10.932 28.5212 9.80435C27.3934 8.67613 25.8635 8.04173 24.2685 8.03989Z" fill="#1673FF"></path><path d="M27.2994 15.0172C26.739 15.0172 26.2846 14.5689 26.2846 14.016C26.2841 13.4851 26.0698 12.976 25.6897 12.6006C25.3091 12.2256 24.7931 12.0142 24.2548 12.0138C23.6944 12.0138 23.24 11.5655 23.24 11.0126C23.24 10.4598 23.6944 10.0115 24.2548 10.0115C25.3313 10.0128 26.363 10.4352 27.1241 11.1856C27.8847 11.9365 28.3129 12.9541 28.3143 14.016C28.3143 14.2815 28.2074 14.5363 28.0171 14.724C27.8268 14.9117 27.5685 15.0172 27.2994 15.0172Z" fill="#1673FF"></path><path d="M51.2843 44.0845H40.2685V6.99995C40.2672 5.67144 39.7388 4.39756 38.8004 3.45793C37.8616 2.51874 36.5888 1.9899 35.2614 1.98853H13.2299C11.9025 1.98987 10.6298 2.51875 9.69093 3.45793C8.75254 4.39757 8.22415 5.67144 8.22278 6.99995V57.1142C8.22412 58.4428 8.75255 59.7166 9.69093 60.6563C10.6298 61.5955 11.9025 62.1243 13.2299 62.1257H35.2614C36.5888 62.1243 37.8616 61.5954 38.8004 60.6563C39.7388 59.7166 40.2672 58.4428 40.2685 57.1142V54.1074H51.2843C53.073 54.1074 54.7262 53.1521 55.6204 51.6017C56.515 50.0513 56.515 48.1406 55.6204 46.5902C54.7263 45.0398 53.073 44.0845 51.2843 44.0845ZM38.2657 57.1142C38.2648 57.9116 37.9478 58.6759 37.385 59.2397C36.8217 59.803 36.058 60.1202 35.2614 60.1211H13.2299C12.4332 60.1202 11.6696 59.803 11.1063 59.2397C10.5434 58.6759 10.2265 57.9116 10.2256 57.1142V6.99995C10.2265 6.2026 10.5434 5.43834 11.1063 4.87454C11.6696 4.31119 12.4332 3.99396 13.2299 3.99306H35.2614C36.058 3.99396 36.8216 4.31119 37.385 4.87454C37.9478 5.43832 38.2648 6.20259 38.2657 6.99995V44.0845H31.7179C30.0549 41.5802 27.25 40.0754 24.2457 40.0754C21.2414 40.0754 18.4365 41.5802 16.7734 44.0845H13.2299C12.6769 44.0845 12.2285 44.5333 12.2285 45.0868V53.1051C12.2285 53.3709 12.334 53.6259 12.5218 53.8139C12.7095 54.0018 12.9644 54.1074 13.2299 54.1074H16.7734C18.4365 56.6117 21.2414 58.1165 24.2457 58.1165C27.25 58.1165 30.0549 56.6117 31.7179 54.1074H38.2657V57.1142ZM29.1388 44.0845H19.3525C20.6579 42.7999 22.4149 42.08 24.2457 42.08C26.0764 42.08 27.8334 42.7999 29.1388 44.0845ZM19.3525 54.1074H29.1388C27.8334 55.392 26.0764 56.112 24.2457 56.112C22.4149 56.112 20.6579 55.392 19.3525 54.1074ZM51.2838 52.1028H14.2309V46.0891H51.2838C52.3572 46.0891 53.3488 46.6623 53.8857 47.5925C54.4222 48.5228 54.4222 49.6692 53.8857 50.5994C53.3488 51.5296 52.3572 52.1028 51.2838 52.1028Z" fill="#1673FF"></path><path d="M35.2125 11.9999C34.6672 11.9999 34.2251 11.5547 34.2251 11.0056V8.02275H32.2502C31.705 8.02275 31.2628 7.57754 31.2628 7.02847C31.2628 6.47939 31.705 6.03418 32.2502 6.03418H35.2125C35.4744 6.03418 35.7256 6.13894 35.9108 6.32536C36.0959 6.51179 36.2 6.7648 36.2 7.02847V11.0056C36.2 11.2693 36.0959 11.5223 35.9108 11.7087C35.7256 11.8951 35.4744 11.9999 35.2125 11.9999Z" fill="#1673FF"></path><path d="M51.2513 50.0572H47.2742C46.7251 50.0572 46.2799 49.612 46.2799 49.0629C46.2799 48.5138 46.7251 48.0686 47.2742 48.0686H51.2513C51.8004 48.0686 52.2456 48.5138 52.2456 49.0629C52.2456 49.612 51.8004 50.0572 51.2513 50.0572Z" fill="#1673FF"></path><path d="M36.2 15.0514C36.2 15.6005 35.7548 16.0457 35.2057 16.0457C34.6566 16.0457 34.2114 15.6005 34.2114 15.0514C34.2114 14.5023 34.6566 14.0571 35.2057 14.0571C35.7548 14.0571 36.2 14.5023 36.2 15.0514Z" fill="#1673FF"></path><path d="M44.2228 49.0629C44.2228 49.612 43.7776 50.0572 43.2285 50.0572C42.6795 50.0572 42.2343 49.612 42.2343 49.0629C42.2343 48.5138 42.6795 48.0686 43.2285 48.0686C43.7776 48.0686 44.2228 48.5138 44.2228 49.0629Z" fill="#1673FF"></path></svg>