<svg xmlns="http://www.w3.org/2000/svg" width="54" height="60" viewBox="0 0 54 60" fill="none"><g clip-path="url(#clip0_2559_59943)"><path d="M52.9806 44.9998C53.399 44.2752 53.6589 43.4587 53.6589 42.7255V17.2742C53.6589 16.541 53.3993 15.7247 52.9808 15L27 29.9999L52.9806 44.9998Z" fill="#00599C"></path><path d="M29.3087 59.4499L51.3502 46.7244C51.9852 46.3578 52.5623 45.7248 52.9806 44.9999L27 30L1.01941 45.0001C1.43776 45.7248 2.01502 46.3579 2.64979 46.7244L24.6913 59.4499C25.961 60.1831 28.039 60.1831 29.3087 59.4499Z" fill="#004482"></path><path d="M52.9808 14.9999C52.5622 14.2751 51.985 13.6421 51.3502 13.2754L29.3087 0.549906C28.039 -0.183302 25.961 -0.183302 24.6913 0.549906L2.64976 13.2754C1.37989 14.0085 0.341064 15.808 0.341064 17.2743V42.7255C0.341064 43.4587 0.600858 44.2752 1.01939 44.9999L27 30L52.9808 14.9999Z" fill="#659AD2"></path><path d="M27 47.7725C17.2002 47.7725 9.22742 39.7998 9.22742 29.9999C9.22742 20.2001 17.2002 12.2273 27 12.2273C33.3236 12.2273 39.2211 15.6302 42.3909 21.108L34.6994 25.5588C33.1129 22.817 30.1625 21.1136 27 21.1136C22.1 21.1136 18.1137 25.0999 18.1137 29.9999C18.1137 34.8997 22.1 38.8862 27 38.8862C30.1629 38.8862 33.1133 37.1828 34.6999 34.4404L42.3915 38.8911C39.2217 44.3694 33.3239 47.7725 27 47.7725Z" fill="white"></path><path d="M44.7726 29.0125H42.7977V27.0378H40.8232V29.0125H38.8484V30.9872H40.8232V32.962H42.7977V30.9872H44.7726V29.0125Z" fill="white"></path><path d="M52.1779 29.0125H50.203V27.0378H48.2285V29.0125H46.2537V30.9872H48.2285V32.962H50.203V30.9872H52.1779V29.0125Z" fill="white"></path></g><defs><clipPath id="clip0_2559_59943"><rect width="53.3178" height="60" fill="white" transform="translate(0.341064)"></rect></clipPath></defs></svg>