<svg xmlns="http://www.w3.org/2000/svg" width="65" height="64" viewBox="0 0 65 64" fill="none"><g clip-path="url(#clip0_7457_19441)"><path d="M32.099 45C32.789 45 33.349 45.56 33.349 46.25C33.349 46.94 32.789 47.5 32.099 47.5C31.409 47.5 30.849 46.94 30.849 46.25C30.849 45.56 31.409 45 32.099 45Z" fill="#1673FF"></path><path d="M35.6958 42.168C33.4758 40.8367 30.7208 40.8367 28.5033 42.168" stroke="#1673FF" stroke-width="2.5" stroke-miterlimit="10" stroke-linecap="round" stroke-linejoin="round"></path><path d="M21.8285 34.5889L22.6697 34.0289C28.3985 30.2076 35.8035 30.2076 41.5347 34.0301L42.3735 34.5889" stroke="#1673FF" stroke-width="2.5" stroke-miterlimit="10" stroke-linecap="round" stroke-linejoin="round"></path><path d="M25.1615 38.375L25.4402 38.1887C29.4727 35.5012 34.7252 35.5012 38.7577 38.1887L39.0365 38.375" stroke="#1673FF" stroke-width="2.5" stroke-miterlimit="10" stroke-linecap="round" stroke-linejoin="round"></path><path d="M17.0996 15.282L29.8646 2.15197C31.0408 0.94822 33.1583 0.94822 34.3346 2.15197L61.9596 30.5657C63.1658 31.7995 63.1421 33.7782 61.9083 34.9845C61.3008 35.5782 60.5121 35.8745 59.7246 35.8745C58.9133 35.8745 58.1021 35.5607 57.4896 34.9332L32.0996 8.97072L6.70957 34.9332C5.50207 36.1682 3.52457 36.192 2.29082 34.9845C1.05707 33.7782 1.03332 31.7995 2.23957 30.5657L17.0996 15.282Z" stroke="#1673FF" stroke-width="2.5" stroke-miterlimit="10" stroke-linecap="round" stroke-linejoin="round"></path><path d="M54.599 31.9938V57.75" stroke="#1673FF" stroke-width="2.5" stroke-miterlimit="10" stroke-linecap="round" stroke-linejoin="round"></path><path d="M9.599 57.75V50.625" stroke="#1673FF" stroke-width="2.5" stroke-miterlimit="10" stroke-linecap="round" stroke-linejoin="round"></path><path d="M9.599 40.625V31.9937" stroke="#1673FF" stroke-width="2.5" stroke-miterlimit="10" stroke-linecap="round" stroke-linejoin="round"></path><path d="M9.599 23.052V6.2495H17.099V15.377" stroke="#1673FF" stroke-width="2.5" stroke-miterlimit="10" stroke-linecap="round" stroke-linejoin="round"></path><path d="M54.599 57.75H57.099C58.4802 57.75 59.599 58.8688 59.599 60.25C59.599 60.94 59.319 61.565 58.8665 62.0175C58.414 62.47 57.789 62.75 57.099 62.75H7.099C5.71775 62.75 4.599 61.6313 4.599 60.25C4.599 59.56 4.879 58.935 5.3315 58.4825C5.784 58.03 6.409 57.75 7.099 57.75H54.599Z" stroke="#1673FF" stroke-width="2.5" stroke-miterlimit="10" stroke-linecap="round" stroke-linejoin="round"></path><path d="M9.599 44.375C10.289 44.375 10.849 44.935 10.849 45.625C10.849 46.315 10.289 46.875 9.599 46.875C8.909 46.875 8.349 46.315 8.349 45.625C8.349 44.935 8.909 44.375 9.599 44.375Z" fill="#1673FF"></path></g><defs><clipPath id="clip0_7457_19441"><rect width="64" height="64" fill="white" transform="translate(0.0999756)"></rect></clipPath></defs></svg>