<svg xmlns="http://www.w3.org/2000/svg" width="65" height="64" viewBox="0 0 65 64" fill="none"><g clip-path="url(#clip0_7457_19482)"><path d="M62.6667 8.53333H60.3371C60.1173 7.91156 59.7107 7.3729 59.1731 6.99103C58.6354 6.60916 57.9929 6.40273 57.3334 6.4H53.0667C52.218 6.4 51.4041 6.73714 50.804 7.33726C50.2039 7.93738 49.8667 8.75131 49.8667 9.6V20.2667C49.8695 20.9261 50.0759 21.5687 50.4577 22.1063C50.8396 22.644 51.3783 23.0506 52.0001 23.2704V45.8667C52.0001 46.1496 51.8877 46.4209 51.6876 46.6209C51.4876 46.821 51.2163 46.9333 50.9334 46.9333C50.6505 46.9333 50.3792 46.821 50.1791 46.6209C49.9791 46.4209 49.8667 46.1496 49.8667 45.8667V37.3333C49.8667 36.2017 49.4172 35.1165 48.617 34.3163C47.8169 33.5162 46.7316 33.0667 45.6001 33.0667H41.3334V4.26667C41.3334 3.13508 40.8839 2.04983 40.0837 1.24968C39.2836 0.449523 38.1983 0 37.0667 0L9.33338 0C8.20179 0 7.11655 0.449523 6.31639 1.24968C5.51624 2.04983 5.06672 3.13508 5.06672 4.26667V55.4667H4.00005C3.15136 55.4667 2.33742 55.8038 1.73731 56.4039C1.13719 57.004 0.800049 57.818 0.800049 58.6667L0.800049 60.8C0.800049 61.6487 1.13719 62.4626 1.73731 63.0627C2.33742 63.6629 3.15136 64 4.00005 64H42.4001C43.2487 64 44.0627 63.6629 44.6628 63.0627C45.2629 62.4626 45.6001 61.6487 45.6001 60.8V58.6667C45.6001 57.818 45.2629 57.004 44.6628 56.4039C44.0627 55.8038 43.2487 55.4667 42.4001 55.4667H41.3334V39.4667H43.4667V45.8667C43.4667 47.847 44.2534 49.7461 45.6537 51.1464C47.0539 52.5467 48.9531 53.3333 50.9334 53.3333C52.9137 53.3333 54.8128 52.5467 56.2131 51.1464C57.6134 49.7461 58.4001 47.847 58.4001 45.8667V23.2704C59.0218 23.0506 59.5605 22.644 59.9424 22.1063C60.3242 21.5687 60.5307 20.9261 60.5334 20.2667V14.9333H62.6667C63.2325 14.9333 63.7751 14.7086 64.1752 14.3085C64.5753 13.9084 64.8 13.3658 64.8 12.8V10.6667C64.8 10.1009 64.5753 9.55825 64.1752 9.15817C63.7751 8.7581 63.2325 8.53333 62.6667 8.53333ZM9.33338 2.13333H37.0667C37.6325 2.13333 38.1751 2.35809 38.5752 2.75817C38.9753 3.15825 39.2001 3.70087 39.2001 4.26667V28.8H7.20005V4.26667C7.20005 3.70087 7.42481 3.15825 7.82489 2.75817C8.22497 2.35809 8.76759 2.13333 9.33338 2.13333ZM43.4667 58.6667V60.8C43.4667 61.0829 43.3543 61.3542 43.1543 61.5543C42.9543 61.7543 42.6829 61.8667 42.4001 61.8667H4.00005C3.71715 61.8667 3.44584 61.7543 3.2458 61.5543C3.04576 61.3542 2.93338 61.0829 2.93338 60.8V58.6667C2.93338 58.3838 3.04576 58.1125 3.2458 57.9124C3.44584 57.7124 3.71715 57.6 4.00005 57.6H42.4001C42.6829 57.6 42.9543 57.7124 43.1543 57.9124C43.3543 58.1125 43.4667 58.3838 43.4667 58.6667ZM7.20005 55.4667V30.9333H39.2001V55.4667H7.20005ZM50.9334 51.2C49.5194 51.1983 48.1638 50.6359 47.164 49.636C46.1642 48.6362 45.6017 47.2806 45.6001 45.8667V39.4667C45.6001 38.9009 45.3753 38.3582 44.9752 37.9582C44.5751 37.5581 44.0325 37.3333 43.4667 37.3333H41.3334V35.2H45.6001C46.1658 35.2 46.7085 35.4248 47.1085 35.8248C47.5086 36.2249 47.7334 36.7675 47.7334 37.3333V45.8667C47.7334 46.7154 48.0705 47.5293 48.6706 48.1294C49.2708 48.7295 50.0847 49.0667 50.9334 49.0667C51.7821 49.0667 52.596 48.7295 53.1961 48.1294C53.7962 47.5293 54.1334 46.7154 54.1334 45.8667V23.4667H56.2667V45.8667C56.265 47.2806 55.7026 48.6362 54.7028 49.636C53.7029 50.6359 52.3474 51.1983 50.9334 51.2ZM58.4001 20.2667C58.4001 20.5496 58.2877 20.8209 58.0876 21.0209C57.8876 21.221 57.6163 21.3333 57.3334 21.3333H53.0667C52.7838 21.3333 52.5125 21.221 52.3125 21.0209C52.1124 20.8209 52.0001 20.5496 52.0001 20.2667V9.6C52.0001 9.3171 52.1124 9.04579 52.3125 8.84575C52.5125 8.64571 52.7838 8.53333 53.0667 8.53333H57.3334C57.6163 8.53333 57.8876 8.64571 58.0876 8.84575C58.2877 9.04579 58.4001 9.3171 58.4001 9.6V20.2667ZM62.6667 12.8H60.5334V10.6667H62.6667V12.8Z" fill="#1673FF"></path><path d="M33.8663 39.4664C34.4992 39.4664 35.1178 39.2787 35.6441 38.9271C36.1703 38.5755 36.5805 38.0757 36.8227 37.491C37.0649 36.9063 37.1282 36.2629 37.0048 35.6421C36.8813 35.0214 36.5765 34.4512 36.129 34.0037C35.6815 33.5561 35.1113 33.2514 34.4906 33.1279C33.8698 33.0044 33.2264 33.0678 32.6417 33.31C32.0569 33.5522 31.5572 33.9623 31.2056 34.4886C30.8539 35.0148 30.6663 35.6335 30.6663 36.2664C30.6663 37.1151 31.0034 37.929 31.6035 38.5291C32.2036 39.1293 33.0176 39.4664 33.8663 39.4664ZM33.8663 35.1997C34.0772 35.1997 34.2835 35.2623 34.4589 35.3795C34.6343 35.4967 34.771 35.6633 34.8517 35.8582C34.9325 36.0531 34.9536 36.2676 34.9124 36.4745C34.8713 36.6814 34.7697 36.8715 34.6205 37.0207C34.4713 37.1698 34.2813 37.2714 34.0744 37.3126C33.8674 37.3537 33.653 37.3326 33.4581 37.2519C33.2632 37.1711 33.0966 37.0344 32.9794 36.859C32.8622 36.6836 32.7996 36.4774 32.7996 36.2664C32.7996 35.9835 32.912 35.7122 33.112 35.5122C33.3121 35.3121 33.5834 35.1997 33.8663 35.1997Z" fill="#1673FF"></path><path d="M33.8663 41.5996C33.2334 41.5996 32.6147 41.7873 32.0884 42.1389C31.5622 42.4905 31.152 42.9903 30.9098 43.575C30.6676 44.1597 30.6043 44.8032 30.7277 45.4239C30.8512 46.0446 31.156 46.6148 31.6035 47.0623C32.051 47.5099 32.6212 47.8147 33.242 47.9381C33.8627 48.0616 34.5061 47.9982 35.0908 47.756C35.6756 47.5138 36.1753 47.1037 36.527 46.5774C36.8786 46.0512 37.0663 45.4325 37.0663 44.7996C37.0663 43.9509 36.7291 43.137 36.129 42.5369C35.5289 41.9368 34.715 41.5996 33.8663 41.5996ZM33.8663 45.8663C33.6553 45.8663 33.4491 45.8037 33.2737 45.6865C33.0982 45.5693 32.9615 45.4027 32.8808 45.2078C32.8001 45.0129 32.7789 44.7984 32.8201 44.5915C32.8612 44.3846 32.9628 44.1945 33.112 44.0454C33.2612 43.8962 33.4513 43.7946 33.6582 43.7534C33.8651 43.7123 34.0795 43.7334 34.2745 43.8141C34.4694 43.8949 34.636 44.0316 34.7532 44.207C34.8704 44.3824 34.9329 44.5886 34.9329 44.7996C34.9329 45.0825 34.8205 45.3538 34.6205 45.5539C34.4205 45.7539 34.1492 45.8663 33.8663 45.8663Z" fill="#1673FF"></path><path d="M24.1144 11.2157C24.2541 10.9735 24.2931 10.6862 24.223 10.4156C24.1529 10.1449 23.9794 9.9126 23.7398 9.7686C23.5002 9.6246 23.2136 9.58043 22.9417 9.6456C22.6699 9.71076 22.4345 9.88005 22.2862 10.117L19.0862 15.4504C18.9889 15.6122 18.9364 15.7969 18.9339 15.9857C18.9315 16.1745 18.9791 16.3606 19.0721 16.5249C19.165 16.6892 19.2999 16.8259 19.463 16.9211C19.6261 17.0162 19.8115 17.0663 20.0003 17.0664H24.5155L22.2862 20.7837C22.211 20.9038 22.1605 21.0377 22.1377 21.1776C22.1148 21.3174 22.1201 21.4604 22.1531 21.5982C22.1861 21.736 22.2463 21.8658 22.33 21.9801C22.4138 22.0944 22.5195 22.1908 22.641 22.2638C22.7624 22.3368 22.8972 22.3849 23.0374 22.4052C23.1777 22.4255 23.3205 22.4177 23.4577 22.3822C23.5949 22.3467 23.7236 22.2842 23.8364 22.1984C23.9491 22.1125 24.0437 22.0051 24.1144 21.8824L27.3144 16.549C27.4117 16.3872 27.4642 16.2025 27.4667 16.0137C27.4691 15.8249 27.4215 15.6388 27.3285 15.4745C27.2356 15.3102 27.1007 15.1735 26.9376 15.0784C26.7745 14.9832 26.5891 14.9331 26.4003 14.933H21.8851L24.1144 11.2157Z" fill="#1673FF"></path><path d="M23.2001 26.6663C26.0281 26.6632 28.7394 25.5384 30.7392 23.5387C32.7389 21.539 33.8637 18.8277 33.8668 15.9997C33.8714 14.3544 33.4915 12.7308 32.7574 11.2583C32.6958 11.1318 32.6096 11.0188 32.504 10.9257C32.3985 10.8327 32.2755 10.7614 32.1423 10.7161C32.009 10.6708 31.8681 10.6523 31.7277 10.6616C31.5873 10.671 31.4501 10.7081 31.3241 10.7707C31.198 10.8333 31.0856 10.9203 30.9933 11.0266C30.9011 11.1328 30.8307 11.2563 30.7864 11.3899C30.7421 11.5235 30.7246 11.6645 30.735 11.8048C30.7454 11.9452 30.7835 12.0821 30.847 12.2077C31.434 13.3853 31.7376 14.6839 31.7334 15.9997C31.7334 17.6874 31.233 19.3372 30.2953 20.7405C29.3577 22.1438 28.0249 23.2376 26.4657 23.8834C24.9064 24.5293 23.1906 24.6983 21.5353 24.369C19.88 24.0398 18.3595 23.2271 17.1661 22.0337C15.9727 20.8402 15.16 19.3197 14.8307 17.6644C14.5015 16.0091 14.6705 14.2934 15.3163 12.7341C15.9622 11.1748 17.0559 9.84212 18.4592 8.90447C19.8625 7.96681 21.5124 7.46634 23.2001 7.46634C23.483 7.46634 23.7543 7.35396 23.9544 7.15392C24.1544 6.95388 24.2668 6.68257 24.2668 6.39967C24.2668 6.11678 24.1544 5.84547 23.9544 5.64543C23.7543 5.44539 23.483 5.33301 23.2001 5.33301C20.3711 5.33301 17.658 6.45681 15.6576 8.4572C13.6573 10.4576 12.5334 13.1707 12.5334 15.9997C12.5334 18.8287 13.6573 21.5418 15.6576 23.5421C17.658 25.5425 20.3711 26.6663 23.2001 26.6663Z" fill="#1673FF"></path></g><defs><clipPath id="clip0_7457_19482"><rect width="64" height="64" fill="white" transform="translate(0.800049)"></rect></clipPath></defs></svg>