<svg xmlns="http://www.w3.org/2000/svg" width="64" height="64" viewBox="0 0 64 64" fill="none"><g clip-path="url(#clip0_7457_19469)"><path d="M6.7002 39C5.04614 39 3.7002 40.3459 3.7002 42C3.7002 43.6541 5.04614 45 6.7002 45C8.35425 45 9.7002 43.6541 9.7002 42C9.7002 40.3459 8.35425 39 6.7002 39ZM6.7002 43C6.1493 43 5.7002 42.5518 5.7002 42C5.7002 41.4482 6.1493 41 6.7002 41C7.25109 41 7.7002 41.4482 7.7002 42C7.7002 42.5518 7.25109 43 6.7002 43Z" fill="#1673FF"></path><path d="M15.7002 39C14.0461 39 12.7002 40.3459 12.7002 42C12.7002 43.6541 14.0461 45 15.7002 45C17.3543 45 18.7002 43.6541 18.7002 42C18.7002 40.3459 17.3543 39 15.7002 39ZM15.7002 43C15.1493 43 14.7002 42.5518 14.7002 42C14.7002 41.4482 15.1493 41 15.7002 41C16.2511 41 16.7002 41.4482 16.7002 42C16.7002 42.5518 16.2511 43 15.7002 43Z" fill="#1673FF"></path><path d="M24.2002 39C22.2705 39 20.7002 40.3459 20.7002 42C20.7002 43.6541 22.2705 45 24.2002 45C26.1299 45 27.7002 43.6541 27.7002 42C27.7002 40.3459 26.1299 39 24.2002 39ZM24.2002 43C23.5575 43 23.0335 42.5518 23.0335 42C23.0335 41.4482 23.5575 41 24.2002 41C24.8429 41 25.3669 41.4482 25.3669 42C25.3669 42.5518 24.8429 43 24.2002 43Z" fill="#1673FF"></path><path d="M31.7002 39C30.0461 39 28.7002 40.3459 28.7002 42C28.7002 43.6541 30.0461 45 31.7002 45C33.3543 45 34.7002 43.6541 34.7002 42C34.7002 40.3459 33.3543 39 31.7002 39ZM31.7002 43C31.1493 43 30.7002 42.5518 30.7002 42C30.7002 41.4482 31.1493 41 31.7002 41C32.2511 41 32.7002 41.4482 32.7002 42C32.7002 42.5518 32.2511 43 31.7002 43Z" fill="#1673FF"></path><path d="M40.2002 39C38.8218 39 37.7002 40.3459 37.7002 42C37.7002 43.6541 38.8218 45 40.2002 45C41.5786 45 42.7002 43.6541 42.7002 42C42.7002 40.3459 41.5786 39 40.2002 39ZM40.2002 43C39.7411 43 39.3669 42.5518 39.3669 42C39.3669 41.4482 39.7411 41 40.2002 41C40.6593 41 41.0335 41.4482 41.0335 42C41.0335 42.5518 40.6593 43 40.2002 43Z" fill="#1673FF"></path><path d="M47.7002 39C46.0461 39 44.7002 40.3459 44.7002 42C44.7002 43.6541 46.0461 45 47.7002 45C49.3543 45 50.7002 43.6541 50.7002 42C50.7002 40.3459 49.3543 39 47.7002 39ZM47.7002 43C47.1493 43 46.7002 42.5518 46.7002 42C46.7002 41.4482 47.1493 41 47.7002 41C48.2511 41 48.7002 41.4482 48.7002 42C48.7002 42.5518 48.2511 43 47.7002 43Z" fill="#1673FF"></path><path d="M56.7002 39C55.0461 39 53.7002 40.3459 53.7002 42C53.7002 43.6541 55.0461 45 56.7002 45C58.3543 45 59.7002 43.6541 59.7002 42C59.7002 40.3459 58.3543 39 56.7002 39ZM56.7002 43C56.1493 43 55.7002 42.5518 55.7002 42C55.7002 41.4482 56.1493 41 56.7002 41C57.2511 41 57.7002 41.4482 57.7002 42C57.7002 42.5518 57.2511 43 56.7002 43Z" fill="#1673FF"></path><path d="M56.7002 34.9999V26C56.7002 25.4482 56.252 25 55.7002 25H45.7002C45.1484 25 44.7002 25.4482 44.7002 26V34.9999H42.7002V26C42.7002 25.4482 42.252 25 41.7002 25H31.7002C31.1484 25 30.7002 25.4482 30.7002 26V34.9999H27.7002V19C27.7002 16.7942 25.906 15 23.7002 15H9.7002C7.49437 15 5.7002 16.7942 5.7002 19V35.0799C2.31311 35.567 -0.299805 38.4799 -0.299805 42C-0.299805 45.859 2.84042 49 6.7002 49H56.7002C60.56 49 63.7002 45.859 63.7002 42C63.7002 38.1411 60.56 35 56.7002 35V34.9999ZM46.7002 27H49.7002V29C49.7002 29.5517 50.1484 29.9999 50.7002 29.9999C51.252 29.9999 51.7002 29.5517 51.7002 29V27H54.7002V34.9999H46.7002V27ZM32.7002 27H35.7002V29C35.7002 29.5517 36.1484 29.9999 36.7002 29.9999C37.252 29.9999 37.7002 29.5517 37.7002 29V27H40.7002V34.9999H32.7002V27ZM9.7002 17H23.7002C24.8033 17 25.7002 17.8969 25.7002 19V34.9999H7.7002V19C7.7002 17.8969 8.59708 17 9.7002 17ZM56.7002 46.9999H6.7002C3.94305 46.9999 1.7002 44.757 1.7002 41.9999C1.7002 39.2428 3.94305 36.9999 6.7002 36.9999H56.7002C59.4573 36.9999 61.7002 39.2428 61.7002 41.9999C61.7002 44.757 59.4573 46.9999 56.7002 46.9999Z" fill="#1673FF"></path><path d="M11.7001 27.4158H12.843C12.938 27.7485 13.0809 28.0604 13.267 28.3489L12.4573 29.0912C12.0662 29.4497 12.0662 30.03 12.4573 30.3885C12.6523 30.5673 12.909 30.6569 13.1644 30.6569C13.4202 30.6569 13.6764 30.5669 13.8715 30.3893L14.6813 29.6469C14.9973 29.8184 15.3384 29.9502 15.7013 30.0365L15.7009 31.0833C15.7009 31.5891 16.1491 32 16.7008 32C17.2526 32 17.7008 31.5891 17.7008 31.0833V30.0365C18.0637 29.9502 18.4048 29.8184 18.72 29.6469L19.5289 30.3885C19.7239 30.5673 19.9797 30.6569 20.236 30.6569C20.4918 30.6569 20.748 30.5669 20.9431 30.3885C21.3342 30.0308 21.3342 29.4505 20.9431 29.0924L20.1342 28.3509C20.3204 28.0612 20.465 27.7485 20.5592 27.4158H21.7002C22.252 27.4158 22.7002 27.005 22.7002 26.4992C22.7002 25.9934 22.252 25.5825 21.7002 25.5825H20.5583C20.4641 25.2498 20.3195 24.9363 20.1333 24.6474L20.9413 23.9059C21.3324 23.5474 21.3324 22.9671 20.9413 22.6099C20.5503 22.2514 19.9173 22.2514 19.5275 22.6099L18.7186 23.3522C18.4035 23.1816 18.0638 23.0498 17.7017 22.9635L17.7008 21.9167C17.7008 21.4109 17.2526 21 16.7009 21C16.1491 21 15.7009 21.4109 15.7009 21.9167V22.9635C15.338 23.0498 14.9969 23.1816 14.6817 23.3531L13.872 22.6107C13.4809 22.2522 12.8488 22.2522 12.4582 22.6107C12.0671 22.9692 12.0671 23.5495 12.4582 23.9067L13.268 24.6491C13.0818 24.938 12.9381 25.2502 12.843 25.5821H11.7002C11.1484 25.5821 10.7002 25.993 10.7002 26.4988C10.7011 27.005 11.1479 27.4158 11.7001 27.4158ZM16.7018 24.6667C17.8035 24.6667 18.6999 25.4872 18.7008 26.4963V26.4992C18.7008 26.5 18.7017 26.5008 18.7017 26.5016C18.6999 27.512 17.8035 28.3333 16.7018 28.3333C15.5987 28.3333 14.7018 27.5112 14.7018 26.5C14.7018 25.4888 15.5987 24.6667 16.7018 24.6667Z" fill="#1673FF"></path></g><defs><clipPath id="clip0_7457_19469"><rect width="64" height="64" fill="white"></rect></clipPath></defs></svg>