<svg xmlns="http://www.w3.org/2000/svg" width="43" height="41" viewBox="0 0 43 41" fill="none"><g opacity="0.5" filter="url(#filter0_f_926_38436)"><path d="M33.4991 8.66689L25.7488 6.58281C22.9376 5.82686 20.8597 7.03863 20.104 9.86915L17.5443 19.4558C16.7762 22.3327 17.9819 24.3876 20.7931 25.1436L28.5434 27.2277C31.4 27.9958 33.4217 26.8087 34.1898 23.9318L36.7495 14.3452C37.5052 11.5146 36.3557 9.43502 33.4991 8.66689Z" fill="#39B93A"></path></g><path d="M36.4668 4.81402L25.0912 1.75509C20.9649 0.645534 17.9151 2.42412 16.8059 6.57865L13.049 20.6496C11.9215 24.8722 13.6911 27.8883 17.8174 28.9979L29.193 32.0568C33.3857 33.1843 36.3531 31.4419 37.4806 27.2193L41.2375 13.1484C42.3467 8.99384 40.6595 5.94146 36.4668 4.81402Z" fill="url(#paint0_linear_926_38436)"></path><g filter="url(#filter1_b_926_38436)"><mask id="path-3-outside-1_926_38436" maskUnits="userSpaceOnUse" x="0" y="6.54932" width="34" height="34" fill="black"><rect fill="white" y="6.54932" width="34" height="34"></rect><path d="M24.1844 7.54932H10.1671C4.68622 7.54932 1 11.4109 1 17.1546V30.4106C1 36.1381 4.68622 39.9997 10.1671 39.9997H24.1844C29.6652 39.9997 33.3353 36.1381 33.3353 30.4106V17.1546C33.3353 11.4109 29.6652 7.54932 24.1844 7.54932"></path></mask><path d="M24.1844 7.54932H10.1671C4.68622 7.54932 1 11.4109 1 17.1546V30.4106C1 36.1381 4.68622 39.9997 10.1671 39.9997H24.1844C29.6652 39.9997 33.3353 36.1381 33.3353 30.4106V17.1546C33.3353 11.4109 29.6652 7.54932 24.1844 7.54932" fill="#EC333A" fill-opacity="0.35"></path><path d="M24.1844 7.94667C24.4039 7.94667 24.5818 7.76877 24.5818 7.54932C24.5818 7.32987 24.4039 7.15197 24.1844 7.15197V7.94667ZM24.1844 7.15197C23.965 7.15197 23.7871 7.32987 23.7871 7.54932C23.7871 7.76877 23.965 7.94667 24.1844 7.94667V7.15197ZM24.1844 7.15197H10.1671V7.94667H24.1844V7.15197ZM10.1671 7.15197C7.32972 7.15197 4.93011 8.15374 3.24077 9.92373C1.55297 11.6921 0.602649 14.197 0.602649 17.1546H1.39735C1.39735 14.3685 2.29014 12.0708 3.81566 10.4724C5.33964 8.87568 7.52356 7.94667 10.1671 7.94667V7.15197ZM0.602649 17.1546V30.4106H1.39735V17.1546H0.602649ZM0.602649 30.4106C0.602649 33.3603 1.55315 35.8612 3.24094 37.6274C4.93023 39.3952 7.32974 40.397 10.1671 40.397V39.6023C7.52354 39.6023 5.33952 38.6733 3.81549 37.0784C2.28996 35.482 1.39735 33.1883 1.39735 30.4106H0.602649ZM10.1671 40.397H24.1844V39.6023H10.1671V40.397ZM24.1844 40.397C27.0218 40.397 29.4175 39.3952 31.1028 37.6271C32.7865 35.8607 33.7326 33.3599 33.7326 30.4106H32.9379C32.9379 33.1888 32.0491 35.4825 30.5275 37.0788C29.0076 38.6733 26.8278 39.6023 24.1844 39.6023V40.397ZM33.7326 30.4106V17.1546H32.9379V30.4106H33.7326ZM33.7326 17.1546C33.7326 14.1975 32.7867 11.6926 31.1029 9.92409C29.4176 8.15381 27.0218 7.15197 24.1844 7.15197V7.94667C26.8278 7.94667 29.0075 8.87562 30.5274 10.4721C32.0489 12.0702 32.9379 14.368 32.9379 17.1546H33.7326Z" fill="url(#paint1_linear_926_38436)" mask="url(#path-3-outside-1_926_38436)"></path></g><g filter="url(#filter2_bd_926_38436)"><mask id="path-5-inside-2_926_38436" fill="white"><path d="M15.2442 29.0441C14.8821 29.0441 14.5199 28.9062 14.2435 28.6287L10.4069 24.7785C9.85395 24.2236 9.85395 23.3247 10.4069 22.7714C10.9598 22.2165 11.8539 22.2149 12.4068 22.7698L15.2442 25.6173L21.9183 18.9196C22.4712 18.3647 23.3653 18.3647 23.9182 18.9196C24.4711 19.4745 24.4711 20.3734 23.9182 20.9283L16.245 28.6287C15.9686 28.9062 15.6064 29.0441 15.2442 29.0441"></path></mask><path d="M15.2442 29.0441C14.8821 29.0441 14.5199 28.9062 14.2435 28.6287L10.4069 24.7785C9.85395 24.2236 9.85395 23.3247 10.4069 22.7714C10.9598 22.2165 11.8539 22.2149 12.4068 22.7698L15.2442 25.6173L21.9183 18.9196C22.4712 18.3647 23.3653 18.3647 23.9182 18.9196C24.4711 19.4745 24.4711 20.3734 23.9182 20.9283L16.245 28.6287C15.9686 28.9062 15.6064 29.0441 15.2442 29.0441" fill="url(#paint2_linear_926_38436)"></path><path d="M10.4069 22.7714L10.4631 22.8276L10.4632 22.8275L10.4069 22.7714ZM15.2442 25.6173L15.188 25.6734L15.2442 25.7299L15.3005 25.6734L15.2442 25.6173ZM23.9182 20.9283L23.8619 20.8722L23.8619 20.8722L23.9182 20.9283ZM16.245 28.6287L16.3013 28.6848L16.3013 28.6848L16.245 28.6287ZM15.2442 28.9646C14.9023 28.9646 14.5607 28.8345 14.2998 28.5726L14.1872 28.6848C14.4792 28.9779 14.8619 29.1236 15.2442 29.1236V28.9646ZM14.2998 28.5726L10.4632 24.7224L10.3506 24.8346L14.1872 28.6848L14.2998 28.5726ZM10.4632 24.7224C9.9411 24.1985 9.94122 23.3498 10.4631 22.8276L10.3507 22.7153C9.76669 23.2996 9.7668 24.2487 10.3506 24.8346L10.4632 24.7224ZM10.4632 22.8275C10.9852 22.3037 11.8288 22.3023 12.3505 22.8259L12.4631 22.7137C11.879 22.1275 10.9345 22.1294 10.3506 22.7154L10.4632 22.8275ZM12.3505 22.8259L15.188 25.6734L15.3005 25.5612L12.4631 22.7137L12.3505 22.8259ZM15.3005 25.6734L21.9745 18.9757L21.862 18.8635L15.188 25.5612L15.3005 25.6734ZM21.9745 18.9757C22.4964 18.452 23.34 18.452 23.8619 18.9757L23.9745 18.8635C23.3905 18.2774 22.4459 18.2774 21.862 18.8635L21.9745 18.9757ZM23.8619 18.9757C24.3839 19.4996 24.3839 20.3483 23.8619 20.8722L23.9745 20.9844C24.5583 20.3985 24.5583 19.4494 23.9745 18.8635L23.8619 18.9757ZM23.8619 20.8722L16.1887 28.5726L16.3013 28.6848L23.9745 20.9844L23.8619 20.8722ZM16.1887 28.5726C15.9278 28.8345 15.5862 28.9646 15.2442 28.9646V29.1236C15.6266 29.1236 16.0093 28.9779 16.3013 28.6848L16.1887 28.5726Z" fill="url(#paint3_linear_926_38436)" fill-opacity="0.5" mask="url(#path-5-inside-2_926_38436)"></path></g><defs><filter id="filter0_f_926_38436" x="11.7545" y="0.799391" width="30.7843" height="32.2196" filterUnits="userSpaceOnUse" color-interpolation-filters="sRGB"></filter><filter id="filter1_b_926_38436" x="-6.2546" y="0.294713" width="46.8444" height="46.9594" filterUnits="userSpaceOnUse" color-interpolation-filters="sRGB"></filter><filter id="filter2_bd_926_38436" x="4.03192" y="12.5432" width="26.2613" height="22.4611" filterUnits="userSpaceOnUse" color-interpolation-filters="sRGB"></filter><linearGradient id="paint0_linear_926_38436" x1="42.9941" y1="6.56923" x2="18.1382" y2="21.7279" gradientUnits="userSpaceOnUse"><stop stop-color="#FD6D6D"></stop><stop offset="1" stop-color="#EC333A"></stop></linearGradient><linearGradient id="paint1_linear_926_38436" x1="6.14725" y1="11.3298" x2="26.8625" y2="36.8952" gradientUnits="userSpaceOnUse"><stop stop-color="white" stop-opacity="0.25"></stop><stop offset="1" stop-color="white" stop-opacity="0"></stop></linearGradient><linearGradient id="paint2_linear_926_38436" x1="23.3161" y1="20.4069" x2="7.35639" y2="21.1148" gradientUnits="userSpaceOnUse"><stop stop-color="white"></stop><stop offset="1" stop-color="white" stop-opacity="0.2"></stop></linearGradient><linearGradient id="paint3_linear_926_38436" x1="11.537" y1="22.0393" x2="23.7139" y2="22.1308" gradientUnits="userSpaceOnUse"><stop stop-color="white"></stop><stop offset="1" stop-color="white" stop-opacity="0"></stop></linearGradient></defs></svg>