<svg xmlns="http://www.w3.org/2000/svg" width="28" height="29" viewBox="0 0 28 29" fill="none"><path d="M17.8034 25.7343C17.7334 25.7343 17.6517 25.7226 17.5817 25.6993C15.2367 25.0343 12.775 25.0343 10.43 25.6993C9.99835 25.8159 9.54335 25.5709 9.42668 25.1393C9.29835 24.7076 9.55502 24.2526 9.98668 24.1359C12.6234 23.3893 15.4 23.3893 18.0367 24.1359C18.4684 24.2643 18.725 24.7076 18.5967 25.1393C18.48 25.5009 18.1534 25.7343 17.8034 25.7343Z" fill="url(#paint0_linear_73_4743)"></path><path d="M22.4118 7.48764C21.1985 5.03764 18.8535 3.22931 16.1352 2.63431C13.2885 2.00431 10.3718 2.68097 8.1435 4.47764C5.9035 6.26264 4.63184 8.93431 4.63184 11.7926C4.63184 14.5174 6.10226 17.356 8.39296 19.2306C8.86133 19.6139 9.17017 20.1708 9.17017 20.776V20.776C9.1585 21.1026 9.14684 21.6043 9.5435 22.0126C9.95184 22.4326 10.5585 22.4793 11.0368 22.4793H17.0218C17.6518 22.4793 18.1302 22.3043 18.4568 21.9776C18.9002 21.5226 18.8885 20.9393 18.8768 20.6243V20.6243C18.8768 20.1137 19.136 19.6429 19.534 19.3231C22.7581 16.7322 24.6222 11.9303 22.4118 7.48764ZM16.0068 13.6243L14.7585 15.7943C14.5952 16.0743 14.3035 16.2376 14.0002 16.2376C13.8485 16.2376 13.6968 16.2026 13.5685 16.121C13.1485 15.876 13.0085 15.3393 13.2418 14.931L13.7454 14.0541C13.9626 13.6759 13.6896 13.2043 13.2535 13.2043V13.2043C12.6702 13.2043 12.1918 12.9476 11.9352 12.516C11.6785 12.0726 11.7018 11.536 11.9935 11.0226L13.2418 8.85264C13.4868 8.43264 14.0235 8.29264 14.4318 8.52597C14.8518 8.77097 14.9918 9.30764 14.7585 9.71597L14.2549 10.5928C14.0377 10.971 14.3107 11.4426 14.7468 11.4426V11.4426C15.3302 11.4426 15.8085 11.6993 16.0652 12.131C16.3218 12.5743 16.2985 13.1226 16.0068 13.6243Z" fill="url(#paint1_linear_73_4743)"></path><defs><linearGradient id="paint0_linear_73_4743" x1="18.6298" y1="23.5759" x2="18.0378" y2="26.5387" gradientUnits="userSpaceOnUse"><stop stop-color="#FD6D6D"></stop><stop offset="1" stop-color="#EC333A"></stop></linearGradient><linearGradient id="paint1_linear_73_4743" x1="23.3744" y1="2.40381" x2="9.10054" y2="17.9893" gradientUnits="userSpaceOnUse"><stop stop-color="#FD6D6D"></stop><stop offset="1" stop-color="#EC333A"></stop></linearGradient></defs></svg>