<svg xmlns="http://www.w3.org/2000/svg" width="18" height="24" viewBox="0 0 18 24" fill="none"><path fill-rule="evenodd" clip-rule="evenodd" d="M8.23324 0.358745C7.62825 0.867846 7.34482 1.65072 7.17443 3.28347C7.03347 4.63344 6.60799 6.39868 6.39123 6.53258C6.34507 6.56114 6.22442 6.14575 6.1231 5.6095C5.92459 4.55937 5.64463 3.8953 5.20068 3.42161C4.74067 2.93075 4.63978 3.02121 4.71015 3.86142C4.7689 4.56144 4.73632 4.70392 4.08268 6.60349L3.3932 8.6071L3.39005 9.97335L3.38679 11.3396L3.8404 12.2527C4.08996 12.755 4.27555 13.1843 4.25296 13.2069C4.23037 13.2295 3.41546 13.0711 2.44189 12.8547C0.44936 12.4122 0.508979 12.4207 0.508979 12.578C0.508979 12.8749 1.29848 14.3383 1.86731 15.0958L2.49934 15.9374H8.77416H15.049L15.5444 15.3291C16.2882 14.4163 17.1779 12.697 16.9992 12.5182C16.9672 12.4862 16.0833 12.6316 15.035 12.8413C13.9866 13.0509 13.0742 13.2225 13.0074 13.2225C12.9406 13.2225 13.0093 13.036 13.1602 12.8081C13.7159 11.9684 13.9131 11.208 13.9117 9.91026C13.9102 8.45713 13.7592 7.90144 12.8958 6.17247C12.1339 4.64647 11.9711 4.019 12.0515 2.91761L12.1118 2.0913L11.7482 2.50733C11.1041 3.24448 10.6193 4.80621 10.4108 6.81525L10.3263 7.62973L10.2452 6.76096C10.1179 5.39774 9.97883 4.84107 9.34734 3.16901C8.74864 1.58361 8.64569 1.06821 8.80142 0.435197C8.91121 -0.011461 8.70597 -0.039045 8.23324 0.358745ZM2.48718 18.1908L2.51802 19.3582L8.78948 19.3862L15.0609 19.4142V18.2188V17.0233H8.75864H2.45633L2.48718 18.1908ZM4.96144 20.64C4.96144 21.1263 5.4359 22.0447 5.89581 22.4485C8.1961 24.4682 12.1155 23.4405 12.6087 20.6885L12.6817 20.2812H8.82151H4.96144V20.64Z" fill="#E6522C"></path></svg>