<svg xmlns="http://www.w3.org/2000/svg" width="20" height="21" viewBox="0 0 20 21" fill="none"><rect y="0.792969" width="20" height="20" rx="10" fill="#6DB33F"></rect><path d="M16.9905 14.4073C14.4619 17.7788 9.06194 16.6359 5.6048 16.8073C5.6048 16.8073 4.99051 16.8359 4.37623 16.9359C4.37623 16.9359 4.6048 16.8359 4.9048 16.7359C7.33337 15.8931 8.47623 15.7216 9.96194 14.9645C12.7334 13.5502 15.4905 10.4502 16.0619 7.23592C15.0048 10.3216 11.7905 12.9931 8.87623 14.0645C6.87623 14.8073 3.26194 15.5216 3.26194 15.5216L3.11909 15.4502C0.633372 14.2645 0.561943 8.92163 5.03337 7.20735C6.99051 6.4502 8.87623 6.86449 10.9905 6.36449C13.2477 5.82163 15.8619 4.13592 16.9334 1.92163C18.1191 5.46449 19.5477 10.9931 16.9905 14.4073Z" fill="white"></path><path d="M16.9333 1.92154C18.119 5.4644 19.5619 10.993 16.9904 14.4073C15.4047 16.5215 12.6904 16.8644 10.0333 16.8644C8.77616 16.8644 7.5333 16.793 6.4333 16.793C6.14758 16.793 5.87616 16.793 5.61901 16.8073C5.61901 16.8073 5.00473 16.8358 4.39044 16.9358C4.39044 16.9358 4.61901 16.8358 4.91901 16.7358C7.34759 15.893 8.49044 15.7215 9.97616 14.9644C12.7476 13.5501 15.5047 10.4501 16.0762 7.23583C15.019 10.3215 11.8047 12.993 8.89044 14.0644C6.89044 14.8073 3.27616 15.5215 3.27616 15.5215L3.1333 15.4501C0.6333 14.2644 0.561871 8.92154 5.0333 7.20725C6.99044 6.45011 8.87616 6.8644 10.9904 6.3644C13.2476 5.83583 15.8619 4.13583 16.9333 1.92154ZM17.0047 0.792969L16.5476 1.73583C15.4762 3.9644 12.8619 5.47868 10.8904 5.95011C10.0047 6.1644 9.1333 6.20725 8.30473 6.25011C7.20473 6.30725 6.06187 6.3644 4.89044 6.80726C2.1333 7.8644 1.07616 10.1787 1.00473 11.993C0.9333 13.7215 1.67616 15.2215 2.89044 15.8358C2.96187 15.8787 3.11901 15.9644 3.24759 15.9644H3.4333L3.46187 15.9358C4.29044 15.7644 7.24758 15.1358 9.01901 14.493C10.2476 14.0358 11.6333 13.2644 12.8904 12.2358C11.9619 13.2215 10.8762 14.0501 9.77616 14.6073C8.87616 15.0644 8.10473 15.3073 7.0333 15.6358C6.40473 15.8215 5.67616 16.0501 4.79044 16.3501C4.47616 16.4501 4.24759 16.5644 4.2333 16.5644L3.91901 17.2073L4.47616 17.3787C5.06187 17.2787 5.64759 17.2501 5.66187 17.2501C5.90473 17.2358 6.16187 17.2358 6.44758 17.2358C6.97616 17.2358 7.5333 17.2501 8.11901 17.2787C8.74759 17.293 9.39044 17.3215 10.0476 17.3215C12.6904 17.3215 15.619 17.0073 17.3476 14.693C19.3619 12.0073 19.3762 7.79297 17.3619 1.80725L17.0047 0.792969Z" fill="#6DB33F"></path><path d="M1.87143 19.1215C2.35271 19.1215 2.74286 18.7314 2.74286 18.2501C2.74286 17.7688 2.35271 17.3787 1.87143 17.3787C1.39015 17.3787 1 17.7688 1 18.2501C1 18.7314 1.39015 19.1215 1.87143 19.1215Z" fill="white"></path></svg>