<svg xmlns="http://www.w3.org/2000/svg" width="36" height="21"><path d="M0 0 C2.1484592 1.54346071 2.86793103 2.47273227 3.51171875 5.04296875 C3.67447917 7.02864583 3.83723958 9.01432292 4 11 C4.99 11.33 5.98 11.66 7 12 C7.495 14.475 7.495 14.475 8 17 C7.38511719 16.96519531 6.77023438 16.93039063 6.13671875 16.89453125 C5.32847656 16.86746094 4.52023438 16.84039063 3.6875 16.8125 C2.88699219 16.77769531 2.08648438 16.74289063 1.26171875 16.70703125 C-1.52671851 17.06822779 -2.12102915 18.00715213 -4 20 C-7.42286302 20.25354541 -10.38822032 20.12513675 -13.75 19.4375 C-16.15493756 18.77859647 -16.15493756 18.77859647 -19 20 C-25.57692308 19.42307692 -25.57692308 19.42307692 -28 17 C-28.30838904 13.60772054 -28.50555597 11.04270919 -27 7.9375 C-23.54580908 6.318348 -20.53630884 7.89852676 -17 9 C-16.773125 8.2575 -16.54625 7.515 -16.3125 6.75 C-12.96932123 -0.25475552 -7.20617749 -1.35573848 0 0 Z M2 12 C3 14 3 14 3 14 Z " fill="#CE944C" transform="translate(28,1)"></path><path d="M0 0 C0 0.66 0 1.32 0 2 C0.99 2 1.98 2 3 2 C3.66 4.97 4.32 7.94 5 11 C1.7 11 -1.6 11 -5 11 C-5 10.34 -5 9.68 -5 9 C-6.65 9.66 -8.3 10.32 -10 11 C-10.99 9.02 -11.98 7.04 -13 5 C-8.58490204 0.69258736 -6.42286118 -0.64228612 0 0 Z " fill="#E3973D" transform="translate(25,1)"></path><path d="M0 0 C6.625 0.75 6.625 0.75 10 3 C9.67 6.3 9.34 9.6 9 13 C7.55625 12.87625 6.1125 12.7525 4.625 12.625 C3.81289062 12.55539063 3.00078125 12.48578125 2.1640625 12.4140625 C0 12 0 12 -2 10 C-2.31537716 5.66356399 -2.44897847 3.67346771 0 0 Z " fill="#3393C5" transform="translate(2,8)"></path><path d="M0 0 C0.99 0 1.98 0 3 0 C3.66 2.97 4.32 5.94 5 9 C1.7 9 -1.6 9 -5 9 C-5 8.34 -5 7.68 -5 7 C-6.65 7.66 -8.3 8.32 -10 9 C-10 8.01 -10 7.02 -10 6 C-9.360625 5.87625 -8.72125 5.7525 -8.0625 5.625 C-7.381875 5.41875 -6.70125 5.2125 -6 5 C-5.67 4.34 -5.34 3.68 -5 3 C-4.01 3.33 -3.02 3.66 -2 4 C-1.34 2.68 -0.68 1.36 0 0 Z " fill="#F59937" transform="translate(25,3)"></path><path d="M0 0 C0.33 1.65 0.66 3.3 1 5 C-3.62 5 -8.24 5 -13 5 C-13.33 4.34 -13.66 3.68 -14 3 C-13.34 2.34 -12.68 1.68 -12 1 C-10.68 1 -9.36 1 -8 1 C-7.34 0.835 -6.68 0.67 -6 0.5 C-4 0 -4 0 0 0 Z " fill="#342517" transform="translate(35,13)"></path><path d="M0 0 C0.99 0.33 1.98 0.66 3 1 C3 2.32 3 3.64 3 5 C3.99 5.33 4.98 5.66 6 6 C6 6.66 6 7.32 6 8 C6.99 8.33 7.98 8.66 9 9 C6.03 8.67 3.06 8.34 0 8 C0 5.36 0 2.72 0 0 Z " fill="#D1934A" transform="translate(12,12)"></path><path d="M0 0 C0.66 0 1.32 0 2 0 C2.33 1.32 2.66 2.64 3 4 C4.32 4.33 5.64 4.66 7 5 C7 5.66 7 6.32 7 7 C3.71023192 8.09658936 2.28696233 7.79953138 -1 7 C-1.625 5.1875 -1.625 5.1875 -2 3 C-1.34 2.01 -0.68 1.02 0 0 Z " fill="#AD6F35" transform="translate(19,13)"></path><path d="M0 0 C0.66 0 1.32 0 2 0 C2 0.99 2 1.98 2 3 C3.32 3.33 4.64 3.66 6 4 C6 4.66 6 5.32 6 6 C4.02 6 2.04 6 0 6 C0 5.34 0 4.68 0 4 C-1.65 4.66 -3.3 5.32 -5 6 C-5 5.01 -5 4.02 -5 3 C-4.360625 2.87625 -3.72125 2.7525 -3.0625 2.625 C-2.0415625 2.315625 -2.0415625 2.315625 -1 2 C-0.67 1.34 -0.34 0.68 0 0 Z " fill="#F6A95D" transform="translate(20,6)"></path><path d="M0 0 C2.86724686 0.57344937 3.8614515 0.8614515 6 3 C6.56520003 5.65537372 6.73788198 8.29144713 7 11 C6.01 11.495 6.01 11.495 5 12 C3.39644899 8.49223216 2.77963136 5.85645121 3 2 C2.01 2 1.02 2 0 2 C0 1.34 0 0.68 0 0 Z " fill="#D0843E" transform="translate(25,1)"></path><path d="M0 0 C1.32 0 2.64 0 4 0 C4 0.66 4 1.32 4 2 C2.68 2 1.36 2 0 2 C-0.33 3.65 -0.66 5.3 -1 7 C-2.32 7 -3.64 7 -5 7 C-5.33 7.66 -5.66 8.32 -6 9 C-6 8.01 -6 7.02 -6 6 C-5.34 6 -4.68 6 -4 6 C-3.71125 5.38125 -3.4225 4.7625 -3.125 4.125 C-2 2 -2 2 0 0 Z " fill="#FB9737" transform="translate(20,2)"></path><path d="M0 0 C3 1 3 1 5 3 C5.66 2.67 6.32 2.34 7 2 C6.25 6.75 6.25 6.75 4 9 C4 7.68 4 6.36 4 5 C3.01 4.67 2.02 4.34 1 4 C0.3125 1.9375 0.3125 1.9375 0 0 Z " fill="#955321" transform="translate(11,8)"></path><path d="M0 0 C0.99 0.33 1.98 0.66 3 1 C3 2.65 3 4.3 3 6 C1.68 6 0.36 6 -1 6 C-0.67 4.02 -0.34 2.04 0 0 Z " fill="#468EAB" transform="translate(9,10)"></path><path d="" fill="#FDF9E4" transform="translate(0,0)"></path><path d="" fill="#000905" transform="translate(0,0)"></path></svg>